<svg width="225" height="60" viewBox="0 0 225 60" fill="none" xmlns="http://www.w3.org/2000/svg">
<g clip-path="url(#clip0)">
<path d="M20.5053 31.6379H12.8177L16.904 18.2427L20.5053 31.6379ZM8.83419 46.4197L11.4506 37.6126H21.7989L24.2536 46.4197H33.8522L24.3271 12.8286C23.7832 10.8518 22.5779 9.92236 20.5053 9.92236H6.938V13.0941H8.08454C9.49566 13.0941 10.2747 13.6547 10.2747 14.7316C10.2747 15.4398 10.113 16.0446 9.55445 17.6821L0 46.4197H8.83419Z" fill="#003781"/>
<path d="M44.9055 46.4196V12.7252C44.9055 10.9697 43.8766 9.93701 42.1862 9.93701H33.793V13.1088H34.3368C35.748 13.1088 36.3506 13.7136 36.3506 15.1446V46.4196H44.9055Z" fill="#003781"/>
<path d="M59.4446 46.4196V12.7252C59.4446 10.9697 58.4009 9.93701 56.7252 9.93701H48.332V13.1088H48.8612C50.287 13.1088 50.8897 13.7136 50.8897 15.1446V46.4196H59.4446Z" fill="#003781"/>
<path d="M74.3628 13.2708C74.3628 10.8219 72.5548 9.34668 69.4532 9.34668C66.4105 9.34668 64.5437 10.8219 64.5437 13.2708C64.5437 15.7492 66.4105 17.2097 69.4532 17.2097C72.5695 17.2097 74.3628 15.7345 74.3628 13.2708ZM74.2011 46.4194V21.8567C74.2011 20.1012 73.1574 19.0685 71.467 19.0685H63.1914V22.1812H63.6765C65.0876 22.1812 65.6903 22.8303 65.6903 24.2613V46.4194H74.2011Z" fill="#003781"/>
<path d="M92.9417 33.2748V38.5856C91.5159 40.0609 89.7814 40.946 88.3115 40.946C86.7828 40.946 86.2389 40.1936 86.2389 38.1431C86.2389 36.122 86.6652 35.1926 88.1939 34.6025C89.3405 34.1157 90.8104 33.6878 92.9417 33.2748ZM81.4323 26.9017C84.2692 25.5298 87.3708 24.7627 89.8255 24.7627C92.1186 24.7627 92.9417 25.5888 92.9417 27.9787V28.5835C89.458 29.1441 88.3703 29.3654 86.4006 29.7932C85.2688 30.0588 84.2104 30.3833 83.1815 30.8259C79.7419 32.2126 78.125 34.868 78.125 38.9692C78.125 44.162 80.3593 46.6699 84.9895 46.6699C86.6799 46.6699 88.2086 46.3454 89.5756 45.7995C90.7663 45.2684 91.4718 44.8259 93.221 43.4539V43.8375C93.221 45.534 94.0883 46.4044 95.7787 46.4044H103.569V43.4539H103.187C101.717 43.4539 101.173 42.79 101.173 41.0493V28.0229C101.173 21.0746 98.7773 18.6699 91.8393 18.6699C89.605 18.6699 87.4296 18.9502 85.3129 19.4518C83.1815 19.9386 82.0791 20.3812 79.5361 21.6351L81.4323 26.9017Z" fill="#003781"/>
<path d="M115.975 46.4195V27.9348C117.4 26.3415 118.856 25.6334 120.561 25.6334C122.369 25.6334 122.795 26.3563 122.795 29.1002V46.4195H131.291V27.8315C131.291 23.5091 130.982 22.1371 129.615 20.6766C128.469 19.4079 126.72 18.7588 124.485 18.7588C121.163 18.7588 118.811 19.7915 115.666 22.7419V21.6503C115.666 19.9537 114.784 19.0833 113.035 19.0833H104.965V22.1961H105.45C106.861 22.1961 107.478 22.8452 107.478 24.2762V46.4342H115.975V46.4195Z" fill="#003781"/>
<path d="M156.514 40.6805H144.637L155.97 24.7184V19.083H138.199C136.185 19.083 135.259 20.0124 135.259 22.0335V27.005H138.42V26.5182C138.42 25.2643 139.066 24.6594 140.433 24.6594H146.548L135.098 40.7985V46.4192H156.514V40.6805Z" fill="#003781"/>
<path d="M201.129 45.7113V14.8051C201.129 12.3414 200.262 11.5153 197.88 11.5153H190.678V14.9673H191.089C192.736 14.9673 193.059 15.3361 193.059 17.3277V45.7113H201.129ZM204.686 45.7113H212.697V21.6502C212.697 19.2308 211.771 18.3604 209.419 18.3604H204.686V45.7113ZM189.516 45.7113V18.3604H184.769C182.417 18.3604 181.505 19.2308 181.505 21.6502V45.726H189.516V45.7113ZM220.267 30C220.267 43.6164 210.507 53.5153 197.101 53.5153C183.696 53.5153 173.935 43.6164 173.935 30C173.935 16.3836 183.696 6.46997 197.101 6.46997C210.507 6.48472 220.267 16.4426 220.267 30ZM225 30C225 13.9937 213.064 2 197.101 2C181.123 2 169.188 13.9937 169.188 30C169.188 46.0358 181.123 58 197.101 58C213.064 58 225 46.0358 225 30Z" fill="#003781"/>
</g>
<defs>
<clipPath id="clip0">
<rect width="225" height="56" fill="white" transform="translate(0 2)"/>
</clipPath>
</defs>
</svg>
