<svg width="24" height="24" viewBox="0 0 24 24" fill="none" xmlns="http://www.w3.org/2000/svg">
<path d="M21 4.21484V19.7812C21 20.3164 20.554 20.7461 20.0076 20.7461H15.4192V13.9727H17.7576L18.1071 11.332H15.4152V9.64453C15.4152 8.87891 15.6321 8.35938 16.7612 8.35938H18.1996V5.99609C17.9504 5.96484 17.0987 5.89062 16.1022 5.89062C14.029 5.89062 12.6067 7.12109 12.6067 9.38281V11.332H10.2603V13.9727H12.6067V20.75H3.99241C3.44598 20.75 3 20.3164 3 19.7852V4.21484C3 3.68359 3.44598 3.25 3.99241 3.25H20.0036C20.554 3.25 21 3.68359 21 4.21484Z" fill="black"/>
<mask id="mask0" mask-type="alpha" maskUnits="userSpaceOnUse" x="3" y="3" width="18" height="18">
<path d="M21 4.21484V19.7812C21 20.3164 20.554 20.7461 20.0076 20.7461H15.4192V13.9727H17.7576L18.1071 11.332H15.4152V9.64453C15.4152 8.87891 15.6321 8.35938 16.7612 8.35938H18.1996V5.99609C17.9504 5.96484 17.0987 5.89062 16.1022 5.89062C14.029 5.89062 12.6067 7.12109 12.6067 9.38281V11.332H10.2603V13.9727H12.6067V20.75H3.99241C3.44598 20.75 3 20.3164 3 19.7852V4.21484C3 3.68359 3.44598 3.25 3.99241 3.25H20.0036C20.554 3.25 21 3.68359 21 4.21484Z" fill="white"/>
</mask>
<g mask="url(#mask0)">
<rect width="24" height="24" fill="#8B8A93"/>
</g>
</svg>
