<svg width="24" height="24" viewBox="0 0 24 24" fill="none" xmlns="http://www.w3.org/2000/svg">
<path fill-rule="evenodd" clip-rule="evenodd" d="M20.8073 16.5781C21.3733 15.4336 21.5 14.1133 21.5 12.8672C21.5 11.2305 21.0448 9.67188 19.9562 8.40625C20.1581 7.80078 20.261 7.16406 20.261 6.52344C20.261 5.68359 20.071 5.26172 19.6831 4.5C17.9098 4.5 16.7619 4.83203 15.416 5.875C14.379 5.62891 13.3023 5.51562 12.2335 5.51562C11.05 5.51562 9.87042 5.63672 8.7225 5.90625C7.35687 4.85156 6.20896 4.5 4.41583 4.5C4.03188 5.26172 3.83792 5.68359 3.83792 6.52344C3.83792 7.16406 3.93687 7.8125 4.14271 8.42969C3.05021 9.68359 2.5 11.2305 2.5 12.8672C2.5 14.1133 2.72167 15.4453 3.29958 16.5781C4.80903 19.5082 8.95113 19.5035 11.9361 19.5002L12.2296 19.5L12.4285 19.5001C15.3648 19.5016 19.3405 19.5037 20.8073 16.5781ZM8.41375 16.9922C9.435 16.9922 9.86646 15.6562 9.86646 14.8398C9.86646 14.0234 9.435 12.6875 8.41375 12.6875C7.3925 12.6875 6.96104 14.0234 6.96104 14.8398C6.96104 15.6562 7.3925 16.9922 8.41375 16.9922ZM18.9548 14.8398C18.9548 13.125 17.8979 11.6133 16.0454 11.6133C15.454 11.6133 14.8825 11.6963 14.2974 11.7812C14.1423 11.8037 13.9863 11.8264 13.8287 11.8477C13.239 11.9375 12.6492 11.9727 12.0435 11.9727C11.4419 11.9727 10.8521 11.9375 10.2583 11.8477C10.1126 11.8277 9.96739 11.8064 9.82251 11.7853C9.23173 11.6989 8.64563 11.6133 8.04167 11.6133C6.18917 11.6133 5.13229 13.125 5.13229 14.8398C5.13229 18.2695 8.31479 18.7969 11.0856 18.7969H12.9935C15.7762 18.7969 18.9548 18.2734 18.9548 14.8398ZM14.2325 14.8398C14.2325 14.0234 14.664 12.6875 15.6852 12.6875C16.7065 12.6875 17.1379 14.0234 17.1379 14.8398C17.1379 15.6562 16.7065 16.9922 15.6852 16.9922C14.664 16.9922 14.2325 15.6562 14.2325 14.8398Z" fill="black"/>
<mask id="mask0" mask-type="alpha" maskUnits="userSpaceOnUse" x="2" y="4" width="20" height="16">
<path fill-rule="evenodd" clip-rule="evenodd" d="M20.8073 16.5781C21.3733 15.4336 21.5 14.1133 21.5 12.8672C21.5 11.2305 21.0448 9.67188 19.9562 8.40625C20.1581 7.80078 20.261 7.16406 20.261 6.52344C20.261 5.68359 20.071 5.26172 19.6831 4.5C17.9098 4.5 16.7619 4.83203 15.416 5.875C14.379 5.62891 13.3023 5.51562 12.2335 5.51562C11.05 5.51562 9.87042 5.63672 8.7225 5.90625C7.35687 4.85156 6.20896 4.5 4.41583 4.5C4.03188 5.26172 3.83792 5.68359 3.83792 6.52344C3.83792 7.16406 3.93687 7.8125 4.14271 8.42969C3.05021 9.68359 2.5 11.2305 2.5 12.8672C2.5 14.1133 2.72167 15.4453 3.29958 16.5781C4.80903 19.5082 8.95113 19.5035 11.9361 19.5002L12.2296 19.5L12.4285 19.5001C15.3648 19.5016 19.3405 19.5037 20.8073 16.5781ZM8.41375 16.9922C9.435 16.9922 9.86646 15.6562 9.86646 14.8398C9.86646 14.0234 9.435 12.6875 8.41375 12.6875C7.3925 12.6875 6.96104 14.0234 6.96104 14.8398C6.96104 15.6562 7.3925 16.9922 8.41375 16.9922ZM18.9548 14.8398C18.9548 13.125 17.8979 11.6133 16.0454 11.6133C15.454 11.6133 14.8825 11.6963 14.2974 11.7812C14.1423 11.8037 13.9863 11.8264 13.8287 11.8477C13.239 11.9375 12.6492 11.9727 12.0435 11.9727C11.4419 11.9727 10.8521 11.9375 10.2583 11.8477C10.1126 11.8277 9.96739 11.8064 9.82251 11.7853C9.23173 11.6989 8.64563 11.6133 8.04167 11.6133C6.18917 11.6133 5.13229 13.125 5.13229 14.8398C5.13229 18.2695 8.31479 18.7969 11.0856 18.7969H12.9935C15.7762 18.7969 18.9548 18.2734 18.9548 14.8398ZM14.2325 14.8398C14.2325 14.0234 14.664 12.6875 15.6852 12.6875C16.7065 12.6875 17.1379 14.0234 17.1379 14.8398C17.1379 15.6562 16.7065 16.9922 15.6852 16.9922C14.664 16.9922 14.2325 15.6562 14.2325 14.8398Z" fill="white"/>
</mask>
<g mask="url(#mask0)">
<rect width="24" height="24" fill="#8B8A93"/>
</g>
</svg>
