<svg width="24" height="24" viewBox="0 0 24 24" fill="none" xmlns="http://www.w3.org/2000/svg">
<path fill-rule="evenodd" clip-rule="evenodd" d="M5.16112 7.47266C3.96809 7.47266 3 6.51172 3 5.35156C3 4.19141 3.96809 3.25 5.16112 3.25C6.35416 3.25 7.32225 4.19141 7.32225 5.35156C7.32225 6.51172 6.35416 7.47266 5.16112 7.47266ZM7.02901 20.75H3.29726V9.06641H7.02901V20.75ZM17.2723 20.75H20.996H21V14.332C21 11.1914 20.3051 8.77344 16.5291 8.77344C14.7135 8.77344 13.4963 9.74219 12.9982 10.6602H12.946V9.06641H9.36688V20.75H13.0946V14.9648C13.0946 13.4414 13.3919 11.9688 15.3321 11.9688C17.2441 11.9688 17.2723 13.707 17.2723 15.0625V20.75Z" fill="black"/>
<mask id="mask0" mask-type="alpha" maskUnits="userSpaceOnUse" x="3" y="3" width="18" height="18">
<path fill-rule="evenodd" clip-rule="evenodd" d="M5.16112 7.47266C3.96809 7.47266 3 6.51172 3 5.35156C3 4.19141 3.96809 3.25 5.16112 3.25C6.35416 3.25 7.32225 4.19141 7.32225 5.35156C7.32225 6.51172 6.35416 7.47266 5.16112 7.47266ZM7.02901 20.75H3.29726V9.06641H7.02901V20.75ZM17.2723 20.75H20.996H21V14.332C21 11.1914 20.3051 8.77344 16.5291 8.77344C14.7135 8.77344 13.4963 9.74219 12.9982 10.6602H12.946V9.06641H9.36688V20.75H13.0946V14.9648C13.0946 13.4414 13.3919 11.9688 15.3321 11.9688C17.2441 11.9688 17.2723 13.707 17.2723 15.0625V20.75Z" fill="white"/>
</mask>
<g mask="url(#mask0)">
<rect width="24" height="24" fill="#8B8A93"/>
</g>
</svg>
