<svg width="24" height="24" viewBox="0 0 24 24" fill="none" xmlns="http://www.w3.org/2000/svg">
<path d="M19.9441 7.92613C19.9568 8.10379 19.9568 8.28148 19.9568 8.45914C19.9568 13.8779 15.8325 20.1216 8.29441 20.1216C5.97207 20.1216 3.81473 19.4489 2 18.2815C2.32996 18.3195 2.64719 18.3322 2.98984 18.3322C4.90605 18.3322 6.67004 17.685 8.07867 16.581C6.27664 16.5429 4.76648 15.3627 4.24617 13.7383C4.5 13.7764 4.75379 13.8018 5.02031 13.8018C5.38832 13.8018 5.75637 13.751 6.09898 13.6622C4.22082 13.2814 2.81215 11.6317 2.81215 9.63934V9.58859C3.35781 9.89316 3.99238 10.0835 4.66492 10.1089C3.56086 9.37281 2.83754 8.11648 2.83754 6.69516C2.83754 5.93375 3.04055 5.23578 3.3959 4.62664C5.41367 7.11395 8.44668 8.73828 11.8477 8.91598C11.7842 8.61141 11.7461 8.29418 11.7461 7.97691C11.7461 5.71801 13.5736 3.87793 15.8451 3.87793C17.0253 3.87793 18.0913 4.37285 18.84 5.17234C19.7664 4.99469 20.6547 4.65203 21.4416 4.1825C21.137 5.1343 20.4898 5.93379 19.6395 6.44137C20.4644 6.35258 21.2639 6.1241 21.9999 5.80687C21.4416 6.61902 20.7436 7.34234 19.9441 7.92613Z" fill="black"/>
<mask id="mask0" mask-type="alpha" maskUnits="userSpaceOnUse" x="2" y="3" width="20" height="18">
<path d="M19.9441 7.92613C19.9568 8.10379 19.9568 8.28148 19.9568 8.45914C19.9568 13.8779 15.8325 20.1216 8.29441 20.1216C5.97207 20.1216 3.81473 19.4489 2 18.2815C2.32996 18.3195 2.64719 18.3322 2.98984 18.3322C4.90605 18.3322 6.67004 17.685 8.07867 16.581C6.27664 16.5429 4.76648 15.3627 4.24617 13.7383C4.5 13.7764 4.75379 13.8018 5.02031 13.8018C5.38832 13.8018 5.75637 13.751 6.09898 13.6622C4.22082 13.2814 2.81215 11.6317 2.81215 9.63934V9.58859C3.35781 9.89316 3.99238 10.0835 4.66492 10.1089C3.56086 9.37281 2.83754 8.11648 2.83754 6.69516C2.83754 5.93375 3.04055 5.23578 3.3959 4.62664C5.41367 7.11395 8.44668 8.73828 11.8477 8.91598C11.7842 8.61141 11.7461 8.29418 11.7461 7.97691C11.7461 5.71801 13.5736 3.87793 15.8451 3.87793C17.0253 3.87793 18.0913 4.37285 18.84 5.17234C19.7664 4.99469 20.6547 4.65203 21.4416 4.1825C21.137 5.1343 20.4898 5.93379 19.6395 6.44137C20.4644 6.35258 21.2639 6.1241 21.9999 5.80687C21.4416 6.61902 20.7436 7.34234 19.9441 7.92613Z" fill="white"/>
</mask>
<g mask="url(#mask0)">
<rect width="24" height="24" fill="#8B8A93"/>
</g>
</svg>
