<svg width="225" height="60" viewBox="0 0 225 60" fill="none" xmlns="http://www.w3.org/2000/svg">
<path fill-rule="evenodd" clip-rule="evenodd" d="M2.51611 44.2842H3.93308V49.8069H3.96456C4.21647 49.4177 4.57858 49.11 5.0509 48.8838C5.52323 48.6576 6.02703 48.5445 6.56233 48.5445C7.13961 48.5445 7.66178 48.6445 8.12886 48.8444C8.59593 49.0442 8.99478 49.3204 9.32541 49.6728C9.65603 50.0252 9.91056 50.4407 10.089 50.9193C10.2674 51.3979 10.3566 51.916 10.3566 52.4736C10.3566 53.0311 10.2674 53.5465 10.089 54.0199C9.91056 54.4933 9.65603 54.9088 9.32541 55.2665C8.99478 55.6241 8.59593 55.9029 8.12886 56.1028C7.66178 56.3026 7.13961 56.4026 6.56233 56.4026C6.05852 56.4026 5.56783 56.2921 5.09026 56.0712C4.61269 55.8503 4.23746 55.54 3.96456 55.1402H3.93308V56.2132H2.51611V44.2842ZM6.39089 55.0767C6.76875 55.0767 7.10987 55.011 7.41425 54.8795C7.71864 54.748 7.97579 54.5692 8.18571 54.343C8.39563 54.1168 8.55832 53.8433 8.67378 53.5225C8.78923 53.2017 8.84696 52.8519 8.84696 52.4732C8.84696 52.0945 8.78923 51.7447 8.67378 51.4239C8.55832 51.103 8.39563 50.8295 8.18571 50.6034C7.97579 50.3772 7.71864 50.1984 7.41425 50.0669C7.10987 49.9354 6.76875 49.8696 6.39089 49.8696C6.01303 49.8696 5.67192 49.9354 5.36753 50.0669C5.06314 50.1984 4.80599 50.3772 4.59607 50.6034C4.38615 50.8295 4.22347 51.103 4.10801 51.4239C3.99255 51.7447 3.93482 52.0945 3.93482 52.4732C3.93482 52.8519 3.99255 53.2017 4.10801 53.5225C4.22347 53.8433 4.38615 54.1168 4.59607 54.343C4.80599 54.5692 5.06314 54.748 5.36753 54.8795C5.67192 55.011 6.01303 55.0767 6.39089 55.0767ZM11.2388 48.7339H12.8762L15.0961 54.5722H15.1276L17.2373 48.7339H18.7645L15.2221 57.8227C15.0961 58.1488 14.9649 58.4459 14.8285 58.7142C14.692 58.9824 14.5293 59.2112 14.3404 59.4006C14.1515 59.5899 13.9232 59.7372 13.6556 59.8424C13.3879 59.9476 13.0599 60.0002 12.6716 60.0002C12.4616 60.0002 12.2491 59.987 12.0339 59.9607C11.8187 59.9344 11.6115 59.8792 11.412 59.7951L11.5852 58.5012C11.8686 58.6169 12.152 58.6747 12.4354 58.6747C12.6558 58.6747 12.8421 58.6458 12.9943 58.588C13.1465 58.5301 13.2777 58.4459 13.3879 58.3355C13.4981 58.225 13.59 58.0962 13.6634 57.9489C13.7369 57.8016 13.8104 57.6333 13.8838 57.444L14.3404 56.2605L11.2388 48.7339ZM24.7466 45.0415H28.6668C29.3806 45.0415 29.9683 45.1388 30.4302 45.3334C30.892 45.528 31.2567 45.7752 31.5244 46.075C31.792 46.3748 31.9783 46.7115 32.0833 47.0849C32.1883 47.4583 32.2407 47.8186 32.2407 48.1658C32.2407 48.5129 32.1883 48.8732 32.0833 49.2466C31.9783 49.6201 31.792 49.9567 31.5244 50.2565C31.2567 50.5563 30.892 50.8035 30.4302 50.9981C29.9683 51.1927 29.3806 51.29 28.6668 51.29H26.258V56.2131H24.7466V45.0415ZM26.2583 49.9643H28.242C28.5359 49.9643 28.8272 49.9407 29.1158 49.8933C29.4045 49.846 29.6616 49.7592 29.8873 49.633C30.113 49.5067 30.294 49.3253 30.4305 49.0886C30.5669 48.8519 30.6351 48.5442 30.6351 48.1655C30.6351 47.7868 30.5669 47.4791 30.4305 47.2424C30.294 47.0058 30.113 46.8243 29.8873 46.6981C29.6616 46.5718 29.4045 46.485 29.1158 46.4377C28.8272 46.3904 28.5359 46.3667 28.242 46.3667H26.2583V49.9643ZM33.72 48.7333H35.1369V49.8852H35.1684C35.2629 49.6853 35.3888 49.5038 35.5463 49.3408C35.7037 49.1777 35.8795 49.0384 36.0737 48.9226C36.2679 48.8069 36.4804 48.7149 36.7113 48.6465C36.9422 48.5781 37.1731 48.5439 37.4041 48.5439C37.635 48.5439 37.8449 48.5755 38.0338 48.6386L37.9708 50.1692C37.8554 50.1376 37.7399 50.1113 37.6245 50.0903C37.509 50.0693 37.3936 50.0587 37.2781 50.0587C36.5854 50.0587 36.0553 50.2534 35.688 50.6426C35.3206 51.0318 35.1369 51.6367 35.1369 52.4572V56.2126H33.72V48.7333ZM40.6966 52.4732C40.6966 52.8519 40.7543 53.2017 40.8698 53.5225C40.9852 53.8433 41.1479 54.1168 41.3578 54.343C41.5678 54.5692 41.8249 54.748 42.1293 54.8795C42.4337 55.011 42.7748 55.0767 43.1527 55.0767C43.5305 55.0767 43.8716 55.011 44.176 54.8795C44.4804 54.748 44.7375 54.5692 44.9475 54.343C45.1574 54.1168 45.3201 53.8433 45.4355 53.5225C45.551 53.2017 45.6087 52.8519 45.6087 52.4732C45.6087 52.0945 45.551 51.7447 45.4355 51.4239C45.3201 51.103 45.1574 50.8295 44.9475 50.6034C44.7375 50.3772 44.4804 50.1984 44.176 50.0669C43.8716 49.9354 43.5305 49.8696 43.1527 49.8696C42.7748 49.8696 42.4337 49.9354 42.1293 50.0669C41.8249 50.1984 41.5678 50.3772 41.3578 50.6034C41.1479 50.8295 40.9852 51.103 40.8698 51.4239C40.7543 51.7447 40.6966 52.0945 40.6966 52.4732ZM39.1843 52.473C39.1843 51.9259 39.2867 51.4158 39.4913 50.9424C39.696 50.469 39.9768 50.0535 40.3336 49.6958C40.6905 49.3382 41.1104 49.0568 41.5932 48.8516C42.076 48.6465 42.5955 48.5439 43.1518 48.5439C43.7081 48.5439 44.2277 48.6465 44.7105 48.8516C45.1933 49.0568 45.6131 49.3382 45.97 49.6958C46.3269 50.0535 46.6076 50.469 46.8123 50.9424C47.017 51.4158 47.1193 51.9259 47.1193 52.473C47.1193 53.02 47.017 53.5328 46.8123 54.0114C46.6076 54.4901 46.3269 54.9056 45.97 55.258C45.6131 55.6104 45.1933 55.8891 44.7105 56.0943C44.2277 56.2994 43.7081 56.402 43.1518 56.402C42.5955 56.402 42.076 56.2994 41.5932 56.0943C41.1104 55.8891 40.6905 55.6104 40.3336 55.258C39.9768 54.9056 39.696 54.4901 39.4913 54.0114C39.2867 53.5328 39.1843 53.02 39.1843 52.473ZM48.8989 48.7333H50.3159V49.8852H50.3474C50.5258 49.4854 50.8354 49.162 51.2763 48.9148C51.7171 48.6675 52.2262 48.5439 52.8034 48.5439C53.1603 48.5439 53.5041 48.5992 53.8347 48.7096C54.1653 48.8201 54.4539 48.991 54.7006 49.2224C54.9473 49.4539 55.1441 49.751 55.291 50.114C55.4379 50.4769 55.5114 50.9056 55.5114 51.4V56.2126H54.0945V51.7944C54.0945 51.4473 54.0472 51.1501 53.9528 50.9029C53.8583 50.6557 53.7323 50.4559 53.5749 50.3033C53.4175 50.1508 53.2364 50.0403 53.0317 49.972C52.8271 49.9036 52.6145 49.8694 52.3941 49.8694C52.1002 49.8694 51.8273 49.9167 51.5754 50.0114C51.3235 50.1061 51.1031 50.256 50.9142 50.4611C50.7252 50.6662 50.5783 50.9266 50.4733 51.2422C50.3684 51.5578 50.3159 51.9312 50.3159 52.3625V56.2126H48.8989V48.7333ZM58.8007 52.4732C58.8007 52.8519 58.8585 53.2017 58.9739 53.5225C59.0894 53.8433 59.2521 54.1168 59.462 54.343C59.6719 54.5692 59.9291 54.748 60.2334 54.8795C60.5378 55.011 60.8789 55.0767 61.2568 55.0767C61.6347 55.0767 61.9758 55.011 62.2802 54.8795C62.5846 54.748 62.8417 54.5692 63.0516 54.343C63.2615 54.1168 63.4242 53.8433 63.5397 53.5225C63.6551 53.2017 63.7129 52.8519 63.7129 52.4732C63.7129 52.0945 63.6551 51.7447 63.5397 51.4239C63.4242 51.103 63.2615 50.8295 63.0516 50.6034C62.8417 50.3772 62.5846 50.1984 62.2802 50.0669C61.9758 49.9354 61.6347 49.8696 61.2568 49.8696C60.8789 49.8696 60.5378 49.9354 60.2334 50.0669C59.9291 50.1984 59.6719 50.3772 59.462 50.6034C59.2521 50.8295 59.0894 51.103 58.9739 51.4239C58.8585 51.7447 58.8007 52.0945 58.8007 52.4732ZM57.2896 52.473C57.2896 51.9259 57.3919 51.4158 57.5966 50.9424C57.8012 50.469 58.082 50.0535 58.4389 49.6958C58.7957 49.3382 59.2156 49.0568 59.6984 48.8516C60.1812 48.6465 60.7008 48.5439 61.257 48.5439C61.8133 48.5439 62.3329 48.6465 62.8157 48.8516C63.2985 49.0568 63.7184 49.3382 64.0752 49.6958C64.4321 50.0535 64.7129 50.469 64.9175 50.9424C65.1222 51.4158 65.2245 51.9259 65.2245 52.473C65.2245 53.02 65.1222 53.5328 64.9175 54.0114C64.7129 54.4901 64.4321 54.9056 64.0752 55.258C63.7184 55.6104 63.2985 55.8891 62.8157 56.0943C62.3329 56.2994 61.8133 56.402 61.257 56.402C60.7008 56.402 60.1812 56.2994 59.6984 56.0943C59.2156 55.8891 58.7957 55.6104 58.4389 55.258C58.082 54.9056 57.8012 54.4901 57.5966 54.0114C57.3919 53.5328 57.2896 53.02 57.2896 52.473ZM66.1099 48.7339H67.7472L69.9829 54.4617L72.1241 48.7339H73.6355L70.7071 56.2132H69.1485L66.1099 48.7339ZM74.9888 48.7339H76.4057V56.2132H74.9888V48.7339ZM74.656 46.0512C74.656 45.7672 74.7583 45.5226 74.963 45.3175C75.1677 45.1123 75.4117 45.0098 75.6951 45.0098C75.9785 45.0098 76.2225 45.1123 76.4272 45.3175C76.6319 45.5226 76.7342 45.7672 76.7342 46.0512C76.7342 46.3352 76.6319 46.5798 76.4272 46.7849C76.2225 46.99 75.9785 47.0926 75.6951 47.0926C75.4117 47.0926 75.1677 46.99 74.963 46.7849C74.7583 46.5798 74.656 46.3352 74.656 46.0512ZM80.6995 52.2211L78.0545 48.7339H79.8808L81.6913 51.3848L83.4704 48.7339H85.1865L82.636 52.2211L85.6588 56.2132H83.8325L81.6284 53.0732L79.4242 56.2132H77.6766L80.6995 52.2211Z" fill="white"/>
<path fill-rule="evenodd" clip-rule="evenodd" d="M17.9187 19.9014V22.6825H0L5.01841 15.1973C9.03316 9.16172 11.5325 5.44379 12.5165 4.04339H3.63097C3.0012 4.04339 2.44033 3.88067 1.94832 3.55522C1.45632 3.22977 1.21032 2.79092 1.21032 2.23865V0.226807H3.86713V0.611423C3.86713 0.927008 3.92617 1.11931 4.04425 1.18835C4.16233 1.25738 4.41817 1.2919 4.81177 1.2919H17.594L4.92985 19.9014H17.9187ZM36.4881 1.29224V4.04372H25.4771V10.5526H35.3073V13.3041H25.4771V19.9018H36.9013V22.6828H22.6136V1.29224H36.4881ZM53.6399 22.6828L48.6215 14.7834C48.4641 14.8031 48.2279 14.813 47.913 14.813H44.7544V22.6828H41.8909V1.29224H47.5883C49.0446 1.29224 50.3435 1.54864 51.485 2.06147C52.6264 2.57429 53.5218 3.32873 54.1713 4.32479C54.8207 5.32085 55.1454 6.51907 55.1454 7.91948C55.1454 9.24099 54.8552 10.454 54.2746 11.5585C53.694 12.6631 52.8035 13.5013 51.603 14.0733L56.9757 22.6828H53.6399ZM47.8496 12.0319C49.3847 12.0319 50.4916 11.6276 51.1706 10.8189C51.8496 10.0102 52.1891 9.08317 52.1891 8.0378C52.1891 7.40663 52.0464 6.78533 51.761 6.17389C51.4757 5.56244 51.023 5.05455 50.4031 4.65021C49.7832 4.24587 49.0009 4.0437 48.0562 4.0437H44.75V12.0319H47.8496ZM115.422 20.8484C114.772 21.3612 113.754 21.8346 112.366 22.2685C110.979 22.7024 109.695 22.9194 108.514 22.9194C106.29 22.9194 104.332 22.4608 102.64 21.5436C100.947 20.6265 99.6433 19.3691 98.7281 17.7715C97.813 16.1738 97.3555 14.3789 97.3555 12.3868C97.3555 10.0594 97.8475 8.04263 98.8315 6.3365C99.8155 4.63037 101.144 3.32368 102.817 2.41637C104.489 1.50907 106.32 1.05542 108.307 1.05542C109.508 1.05542 110.639 1.19842 111.702 1.48442C112.765 1.77041 113.719 2.1501 114.566 2.62347L113.621 5.25662C112.991 4.90158 112.199 4.59094 111.245 4.32466C110.29 4.05839 109.429 3.92525 108.662 3.92525C107.009 3.92525 105.547 4.26055 104.278 4.93117C103.009 5.60179 102.029 6.55839 101.341 7.801C100.652 9.04362 100.307 10.4933 100.307 12.1501C100.307 13.6886 100.652 15.0594 101.341 16.2626C102.029 17.4657 103.004 18.3977 104.263 19.0584C105.523 19.7192 106.959 20.0496 108.573 20.0496C109.321 20.0496 110.049 19.9756 110.758 19.8277C111.466 19.6797 112.056 19.4677 112.529 19.1916V14.9608H108.278V12.2093H115.422V20.8484ZM132.636 22.6828L127.617 14.7834C127.46 14.8031 127.224 14.813 126.909 14.813H123.75V22.6828H120.887V1.29224H126.584C128.04 1.29224 129.339 1.54864 130.481 2.06147C131.622 2.57429 132.518 3.32873 133.167 4.32479C133.816 5.32085 134.141 6.51907 134.141 7.91948C134.141 9.24099 133.851 10.454 133.27 11.5585C132.69 12.6631 131.799 13.5013 130.599 14.0733L135.971 22.6828H132.636ZM126.85 12.0319C128.385 12.0319 129.492 11.6276 130.171 10.8189C130.85 10.0102 131.189 9.08317 131.189 8.0378C131.189 7.40663 131.046 6.78533 130.761 6.17389C130.476 5.56244 130.023 5.05455 129.403 4.65021C128.783 4.24587 128.001 4.0437 127.056 4.0437H123.75V12.0319H126.85ZM151.556 17.0614H143.349L141.076 22.6827H138.242L147.571 0.404541H147.748L157.076 22.6827H153.77L151.556 17.0614ZM150.582 14.5761L147.541 6.76538L144.383 14.5761H150.582ZM178.033 1.29224L168.617 23.6888L159.2 1.29224H162.594L168.735 16.7065L174.668 1.29224H178.033ZM185.148 1.29224V22.6828H182.285V1.29224H185.148ZM203.896 1.29224V4.04372H198.169V22.6828H195.306V4.04372H189.727V1.29224H203.896ZM224.998 1.29224L216.998 15.5526V22.6828H214.135V15.5526L206.224 1.29224H209.766L215.641 12.2982L221.486 1.29224H224.998Z" fill="#BD10E0"/>
<path fill-rule="evenodd" clip-rule="evenodd" d="M17.9187 19.9014V22.6825H0L5.01841 15.1973C9.03316 9.16172 11.5325 5.44379 12.5165 4.04339H3.63097C3.0012 4.04339 2.44033 3.88067 1.94832 3.55522C1.45632 3.22977 1.21032 2.79092 1.21032 2.23865V0.226807H3.86713V0.611423C3.86713 0.927008 3.92617 1.11931 4.04425 1.18835C4.16233 1.25738 4.41817 1.2919 4.81177 1.2919H17.594L4.92985 19.9014H17.9187ZM36.4881 1.29224V4.04372H25.4771V10.5526H35.3073V13.3041H25.4771V19.9018H36.9013V22.6828H22.6136V1.29224H36.4881ZM53.6399 22.6828L48.6215 14.7834C48.4641 14.8031 48.2279 14.813 47.913 14.813H44.7544V22.6828H41.8909V1.29224H47.5883C49.0446 1.29224 50.3435 1.54864 51.485 2.06147C52.6264 2.57429 53.5218 3.32873 54.1713 4.32479C54.8207 5.32085 55.1454 6.51907 55.1454 7.91948C55.1454 9.24099 54.8552 10.454 54.2746 11.5585C53.694 12.6631 52.8035 13.5013 51.603 14.0733L56.9757 22.6828H53.6399ZM47.8496 12.0319C49.3847 12.0319 50.4916 11.6276 51.1706 10.8189C51.8496 10.0102 52.1891 9.08317 52.1891 8.0378C52.1891 7.40663 52.0464 6.78533 51.761 6.17389C51.4757 5.56244 51.023 5.05455 50.4031 4.65021C49.7832 4.24587 49.0009 4.0437 48.0562 4.0437H44.75V12.0319H47.8496ZM115.422 20.8484C114.772 21.3612 113.754 21.8346 112.366 22.2685C110.979 22.7024 109.695 22.9194 108.514 22.9194C106.29 22.9194 104.332 22.4608 102.64 21.5436C100.947 20.6265 99.6433 19.3691 98.7281 17.7715C97.813 16.1738 97.3555 14.3789 97.3555 12.3868C97.3555 10.0594 97.8475 8.04263 98.8315 6.3365C99.8155 4.63037 101.144 3.32368 102.817 2.41637C104.489 1.50907 106.32 1.05542 108.307 1.05542C109.508 1.05542 110.639 1.19842 111.702 1.48442C112.765 1.77041 113.719 2.1501 114.566 2.62347L113.621 5.25662C112.991 4.90158 112.199 4.59094 111.245 4.32466C110.29 4.05839 109.429 3.92525 108.662 3.92525C107.009 3.92525 105.547 4.26055 104.278 4.93117C103.009 5.60179 102.029 6.55839 101.341 7.801C100.652 9.04362 100.307 10.4933 100.307 12.1501C100.307 13.6886 100.652 15.0594 101.341 16.2626C102.029 17.4657 103.004 18.3977 104.263 19.0584C105.523 19.7192 106.959 20.0496 108.573 20.0496C109.321 20.0496 110.049 19.9756 110.758 19.8277C111.466 19.6797 112.056 19.4677 112.529 19.1916V14.9608H108.278V12.2093H115.422V20.8484ZM132.636 22.6828L127.617 14.7834C127.46 14.8031 127.224 14.813 126.909 14.813H123.75V22.6828H120.887V1.29224H126.584C128.04 1.29224 129.339 1.54864 130.481 2.06147C131.622 2.57429 132.518 3.32873 133.167 4.32479C133.816 5.32085 134.141 6.51907 134.141 7.91948C134.141 9.24099 133.851 10.454 133.27 11.5585C132.69 12.6631 131.799 13.5013 130.599 14.0733L135.971 22.6828H132.636ZM126.85 12.0319C128.385 12.0319 129.492 11.6276 130.171 10.8189C130.85 10.0102 131.189 9.08317 131.189 8.0378C131.189 7.40663 131.046 6.78533 130.761 6.17389C130.476 5.56244 130.023 5.05455 129.403 4.65021C128.783 4.24587 128.001 4.0437 127.056 4.0437H123.75V12.0319H126.85ZM151.556 17.0614H143.349L141.076 22.6827H138.242L147.571 0.404541H147.748L157.076 22.6827H153.77L151.556 17.0614ZM150.582 14.5761L147.541 6.76538L144.383 14.5761H150.582ZM178.033 1.29224L168.617 23.6888L159.2 1.29224H162.594L168.735 16.7065L174.668 1.29224H178.033ZM185.148 1.29224V22.6828H182.285V1.29224H185.148ZM203.896 1.29224V4.04372H198.169V22.6828H195.306V4.04372H189.727V1.29224H203.896ZM224.998 1.29224L216.998 15.5526V22.6828H214.135V15.5526L206.224 1.29224H209.766L215.641 12.2982L221.486 1.29224H224.998Z" fill="url(#paint0_linear)"/>
<path fill-rule="evenodd" clip-rule="evenodd" d="M69.8311 20.6671C64.7002 20.6671 60.5258 16.4835 60.5258 11.3411C60.5258 9.92589 60.8785 8.48531 61.5474 7.16077C62.3743 7.1482 63.1732 6.77028 63.722 6.12166C64.2794 5.46279 64.5157 4.62556 64.3868 3.79213C65.9618 2.64472 67.8861 2.01514 69.8311 2.01514C74.962 2.01514 79.1363 6.19875 79.1363 11.3411C79.1363 16.4835 74.962 20.6671 69.8311 20.6671ZM77.8254 3.32863C75.6837 1.18215 72.8444 0 69.8307 0C67.1861 0 64.6132 0.939931 62.586 2.64674L61.9979 3.14189L62.3199 3.84068C62.4733 4.17354 62.425 4.53873 62.1909 4.81744C61.9586 5.094 61.6075 5.20214 61.2518 5.10674L60.5143 4.90899L60.1262 5.56781C59.072 7.35737 58.5147 9.35377 58.5147 11.3413C58.5147 14.3617 59.6943 17.2073 61.8361 19.3538C63.9778 21.5004 66.8171 22.6825 69.8307 22.6825C72.8445 22.6825 75.6837 21.5004 77.8255 19.3538C79.9673 17.2072 81.1467 14.3616 81.1467 11.3413C81.1467 8.3208 79.9672 5.47519 77.8254 3.32863Z" fill="#48B6C5"/>
<path fill-rule="evenodd" clip-rule="evenodd" d="M68.8445 8.90534C68.0144 8.90534 67.3391 8.22848 67.3391 7.39652C67.3391 6.56456 68.0144 5.8877 68.8445 5.8877C69.6746 5.8877 70.35 6.56456 70.35 7.39652C70.35 8.22848 69.6746 8.90534 68.8445 8.90534ZM68.846 3.94482C66.947 3.94482 65.402 5.49325 65.402 7.39651C65.402 9.29978 66.947 10.8482 68.846 10.8482C70.745 10.8482 72.29 9.29978 72.29 7.39651C72.29 5.49325 70.745 3.94482 68.846 3.94482Z" fill="#48B6C5"/>
<path fill-rule="evenodd" clip-rule="evenodd" d="M67.862 17.0741C67.4211 17.0741 67.0623 16.7145 67.0623 16.2726C67.0623 15.8307 67.4211 15.4712 67.862 15.4712C68.3029 15.4712 68.6617 15.8307 68.6617 16.2726C68.6617 16.7145 68.3029 17.0741 67.862 17.0741ZM67.862 13.8066C66.5055 13.8066 65.402 14.9126 65.402 16.2721C65.402 17.6316 66.5055 18.7376 67.862 18.7376C69.2184 18.7376 70.322 17.6316 70.322 16.2721C70.322 14.9126 69.2184 13.8066 67.862 13.8066Z" fill="#48B6C5"/>
<path fill-rule="evenodd" clip-rule="evenodd" d="M75.7329 8.87598C74.919 8.87598 74.2569 9.53959 74.2569 10.3553C74.2569 11.171 74.919 11.8346 75.7329 11.8346C76.5468 11.8346 77.2089 11.171 77.2089 10.3553C77.2089 9.53959 76.5468 8.87598 75.7329 8.87598Z" fill="#48B6C5"/>
<defs>
<linearGradient id="paint0_linear" x1="0" y1="20.4583" x2="163.039" y2="20.4583" gradientUnits="userSpaceOnUse">
<stop stop-color="#1FD9AB"/>
<stop offset="1" stop-color="#7490E0"/>
</linearGradient>
</defs>
</svg>
