<svg id="Layer_1" data-name="Layer 1" xmlns="http://www.w3.org/2000/svg" viewBox="0 0 140 70"><defs><style>.cls-1{fill:#040257;}.cls-2{fill:#5bb44c;}.cls-3{fill:#8dc242;}.cls-4{fill:#3bd148;}</style></defs><title>Pronovix_logo_developer</title><g id="Layer_3" data-name="Layer 3"><path class="cls-1" d="M27.21,50.07l.85-.08q.5,0,1,0a3.92,3.92,0,0,1,2.93,1,3.94,3.94,0,0,1,1,2.86,3.82,3.82,0,0,1-1,2.89,4.13,4.13,0,0,1-3,.94q-.49,0-1,0l-.82-.08Zm1.06,6.59.36,0,.45,0a4.16,4.16,0,0,0,1.11-.14,2.09,2.09,0,0,0,.87-.47,2.14,2.14,0,0,0,.56-.9,4.35,4.35,0,0,0,.2-1.42,4,4,0,0,0-.2-1.33,2.32,2.32,0,0,0-.55-.9,2.12,2.12,0,0,0-.86-.5,3.67,3.67,0,0,0-1.1-.16h-.43a2.74,2.74,0,0,0-.41,0Z"/><path class="cls-1" d="M34.81,55.12a1.74,1.74,0,0,0,.45,1.28,1.81,1.81,0,0,0,1.27.41,3.81,3.81,0,0,0,1.4-.26,1.56,1.56,0,0,1,.13.38,2.47,2.47,0,0,1,.06.44,3.47,3.47,0,0,1-.75.22,5.23,5.23,0,0,1-.91.07,3.43,3.43,0,0,1-1.24-.2A2.19,2.19,0,0,1,33.88,56a3.72,3.72,0,0,1-.16-1.1,3.91,3.91,0,0,1,.15-1.1,2.49,2.49,0,0,1,.46-.89,2.23,2.23,0,0,1,.78-.6,2.59,2.59,0,0,1,1.11-.22,2.33,2.33,0,0,1,1,.19,2,2,0,0,1,.69.51,2.23,2.23,0,0,1,.43.78,3.18,3.18,0,0,1,.15,1q0,.15,0,.31t0,.28Zm2.63-.77a2,2,0,0,0-.08-.55,1.41,1.41,0,0,0-.23-.46,1.11,1.11,0,0,0-.38-.32,1.21,1.21,0,0,0-.55-.12,1.22,1.22,0,0,0-1,.38,1.88,1.88,0,0,0-.41,1.07Z"/><path class="cls-1" d="M38.63,52.2l.3,0h.58l.28,0,1.45,4.39L42.7,52.2l.26,0h.54l.29,0-2.08,5.32-.27,0H41l-.25,0Z"/><path class="cls-1" d="M45,55.12a1.74,1.74,0,0,0,.45,1.28,1.81,1.81,0,0,0,1.27.41,3.81,3.81,0,0,0,1.4-.26,1.56,1.56,0,0,1,.13.38,2.47,2.47,0,0,1,.06.44,3.47,3.47,0,0,1-.75.22,5.23,5.23,0,0,1-.91.07,3.43,3.43,0,0,1-1.24-.2A2.19,2.19,0,0,1,44.1,56a3.72,3.72,0,0,1-.16-1.1,3.91,3.91,0,0,1,.15-1.1,2.49,2.49,0,0,1,.46-.89,2.23,2.23,0,0,1,.78-.6,2.59,2.59,0,0,1,1.11-.22,2.33,2.33,0,0,1,1,.19,2,2,0,0,1,.69.51,2.23,2.23,0,0,1,.43.78,3.19,3.19,0,0,1,.15,1q0,.15,0,.31t0,.28Zm2.63-.77a2,2,0,0,0-.08-.55,1.41,1.41,0,0,0-.23-.46A1.11,1.11,0,0,0,47,53a1.21,1.21,0,0,0-.55-.12,1.22,1.22,0,0,0-1,.38A1.88,1.88,0,0,0,45,54.35Z"/><path class="cls-1" d="M49.69,49.92l.25,0h.51l.25,0v6a1.59,1.59,0,0,0,.05.46.61.61,0,0,0,.14.25.41.41,0,0,0,.21.11l.25,0h.21l.2,0a3.16,3.16,0,0,1,.09.79,1.36,1.36,0,0,1-.35.07l-.38,0a2.07,2.07,0,0,1-.56-.07,1.2,1.2,0,0,1-.46-.24,1.12,1.12,0,0,1-.31-.45,1.85,1.85,0,0,1-.11-.69Z"/><path class="cls-1" d="M54.63,57.65a2.61,2.61,0,0,1-1.09-.21,2.16,2.16,0,0,1-.78-.59,2.44,2.44,0,0,1-.46-.88,4.09,4.09,0,0,1,0-2.2,2.44,2.44,0,0,1,.46-.88,2.21,2.21,0,0,1,.78-.59,2.83,2.83,0,0,1,2.18,0,2.21,2.21,0,0,1,.78.59,2.44,2.44,0,0,1,.46.87A4.09,4.09,0,0,1,57,56a2.44,2.44,0,0,1-.46.88,2.16,2.16,0,0,1-.78.59A2.61,2.61,0,0,1,54.63,57.65Zm0-.82a1.19,1.19,0,0,0,1.06-.52,3.2,3.2,0,0,0,0-2.88,1.19,1.19,0,0,0-1.06-.51,1.17,1.17,0,0,0-1.05.51,3.24,3.24,0,0,0,0,2.88,1.16,1.16,0,0,0,1.05.52Z"/><path class="cls-1" d="M58.13,52.2l.21,0h.44l.22,0a.65.65,0,0,1,0,.13l0,.23,0,.24q0,.11,0,.15a2.11,2.11,0,0,1,.24-.32,1.66,1.66,0,0,1,.35-.28,1.82,1.82,0,0,1,.46-.2,2.06,2.06,0,0,1,.57-.07,2.37,2.37,0,0,1,.87.16,1.73,1.73,0,0,1,.68.48,2.32,2.32,0,0,1,.45.83,3.92,3.92,0,0,1,.16,1.19,3,3,0,0,1-.74,2.14,2.77,2.77,0,0,1-2.1.77,3.59,3.59,0,0,1-.47,0,2.74,2.74,0,0,1-.41-.08V60l-.26,0h-.51l-.25,0Zm1,4.45a2,2,0,0,0,.41.1,3.76,3.76,0,0,0,.54,0,1.9,1.9,0,0,0,.68-.12,1.36,1.36,0,0,0,.53-.37,1.8,1.8,0,0,0,.35-.63,2.78,2.78,0,0,0,.13-.9,2.46,2.46,0,0,0-.31-1.32,1.1,1.1,0,0,0-1-.49,1.35,1.35,0,0,0-.5.09,1.23,1.23,0,0,0-.43.28,1.38,1.38,0,0,0-.3.47,1.82,1.82,0,0,0-.11.68Z"/><path class="cls-1" d="M64.71,55.12a1.74,1.74,0,0,0,.45,1.28,1.81,1.81,0,0,0,1.27.41,3.81,3.81,0,0,0,1.4-.26,1.56,1.56,0,0,1,.13.38,2.48,2.48,0,0,1,.06.44,3.47,3.47,0,0,1-.75.22,5.23,5.23,0,0,1-.91.07,3.43,3.43,0,0,1-1.24-.2A2.19,2.19,0,0,1,63.77,56a3.72,3.72,0,0,1-.16-1.1,3.91,3.91,0,0,1,.15-1.1,2.49,2.49,0,0,1,.46-.89,2.23,2.23,0,0,1,.78-.6,2.59,2.59,0,0,1,1.11-.22,2.33,2.33,0,0,1,1,.19,2,2,0,0,1,.69.51,2.23,2.23,0,0,1,.43.78,3.19,3.19,0,0,1,.15,1q0,.15,0,.31t0,.28Zm2.63-.77a2,2,0,0,0-.08-.55,1.41,1.41,0,0,0-.23-.46,1.11,1.11,0,0,0-.38-.32,1.21,1.21,0,0,0-.55-.12,1.22,1.22,0,0,0-1,.38,1.88,1.88,0,0,0-.41,1.07Z"/><path class="cls-1" d="M69.38,52.2l.22,0H70l.21,0q0,.16.06.41a3.64,3.64,0,0,1,0,.43,2.15,2.15,0,0,1,.57-.61,1.53,1.53,0,0,1,.92-.26H72l.15,0a1.73,1.73,0,0,1,0,.2c0,.07,0,.14,0,.22a2.26,2.26,0,0,1,0,.26q0,.13,0,.26l-.17,0h-.14a1.81,1.81,0,0,0-.53.08,1.12,1.12,0,0,0-.46.28,1.37,1.37,0,0,0-.32.54,2.73,2.73,0,0,0-.12.88v2.64l-.25,0h-.51l-.26,0Z"/><path class="cls-1" d="M75,52.2l.21,0h.44l.22,0a.65.65,0,0,1,0,.13l0,.23,0,.24q0,.11,0,.15a2.11,2.11,0,0,1,.24-.32,1.67,1.67,0,0,1,.35-.28,1.82,1.82,0,0,1,.46-.2,2.06,2.06,0,0,1,.57-.07,2.37,2.37,0,0,1,.87.16,1.73,1.73,0,0,1,.68.48,2.32,2.32,0,0,1,.45.83,3.92,3.92,0,0,1,.16,1.19,3,3,0,0,1-.74,2.14,2.77,2.77,0,0,1-2.1.77,3.59,3.59,0,0,1-.47,0,2.74,2.74,0,0,1-.41-.08V60l-.26,0H75.3L75,60Zm1,4.45a2,2,0,0,0,.41.1,3.76,3.76,0,0,0,.54,0,1.9,1.9,0,0,0,.68-.12,1.36,1.36,0,0,0,.53-.37,1.8,1.8,0,0,0,.35-.63,2.78,2.78,0,0,0,.13-.9,2.46,2.46,0,0,0-.31-1.32,1.1,1.1,0,0,0-1-.49,1.35,1.35,0,0,0-.5.09,1.23,1.23,0,0,0-.43.28,1.38,1.38,0,0,0-.3.47,1.82,1.82,0,0,0-.11.68Z"/><path class="cls-1" d="M83,57.65a2.61,2.61,0,0,1-1.09-.21,2.16,2.16,0,0,1-.78-.59,2.44,2.44,0,0,1-.46-.88,4.09,4.09,0,0,1,0-2.2,2.44,2.44,0,0,1,.46-.88,2.21,2.21,0,0,1,.78-.59,2.83,2.83,0,0,1,2.18,0,2.21,2.21,0,0,1,.78.59,2.44,2.44,0,0,1,.46.87,4.09,4.09,0,0,1,0,2.2,2.44,2.44,0,0,1-.46.88,2.16,2.16,0,0,1-.78.59A2.61,2.61,0,0,1,83,57.65Zm0-.82a1.19,1.19,0,0,0,1.06-.52,3.2,3.2,0,0,0,0-2.88A1.19,1.19,0,0,0,83,52.92a1.17,1.17,0,0,0-1.05.51,3.24,3.24,0,0,0,0,2.88,1.16,1.16,0,0,0,1.05.52Z"/><path class="cls-1" d="M86.52,52.2l.22,0h.45l.21,0q0,.16.06.41a3.64,3.64,0,0,1,0,.43,2.15,2.15,0,0,1,.57-.61,1.53,1.53,0,0,1,.92-.26h.17l.15,0a1.73,1.73,0,0,1,0,.2c0,.07,0,.14,0,.22a2.26,2.26,0,0,1,0,.26q0,.13,0,.26l-.17,0H89a1.81,1.81,0,0,0-.53.08,1.12,1.12,0,0,0-.46.28,1.37,1.37,0,0,0-.32.54,2.73,2.73,0,0,0-.12.88v2.64l-.25,0h-.51l-.26,0Z"/><path class="cls-1" d="M90.25,53h-.81l0-.15,1.78-2h.08V52.2h1.35a1.73,1.73,0,0,1,0,.39,1.46,1.46,0,0,1,0,.22c0,.07,0,.14,0,.21H91.27v2.43a5.23,5.23,0,0,0,0,.69,1,1,0,0,0,.12.4.42.42,0,0,0,.24.19,1.3,1.3,0,0,0,.38,0l.33,0,.28-.06a1.64,1.64,0,0,1,.09.43q0,.22,0,.38l-.44.08-.49,0a1.73,1.73,0,0,1-1.17-.36,1.51,1.51,0,0,1-.42-1.2Z"/><path class="cls-1" d="M96.25,54a1,1,0,0,0-.31-.85,1.45,1.45,0,0,0-.9-.24,3.84,3.84,0,0,0-.68.06,5.18,5.18,0,0,0-.62.15,1.61,1.61,0,0,1-.2-.82,4.78,4.78,0,0,1,.78-.18,5.66,5.66,0,0,1,.82-.06,2.33,2.33,0,0,1,1.58.47,1.91,1.91,0,0,1,.54,1.51v3.33l-.88.17a6.31,6.31,0,0,1-1.06.09,4.14,4.14,0,0,1-.92-.09,1.87,1.87,0,0,1-.69-.3,1.39,1.39,0,0,1-.44-.53,1.77,1.77,0,0,1-.16-.78,1.59,1.59,0,0,1,.67-1.34,2.2,2.2,0,0,1,.72-.33,3.26,3.26,0,0,1,.85-.11l.54,0,.36,0Zm0,1-.39,0-.41,0a1.69,1.69,0,0,0-1,.24.83.83,0,0,0-.34.73.89.89,0,0,0,.11.49.78.78,0,0,0,.29.27,1,1,0,0,0,.38.11l.39,0,.49,0a3,3,0,0,0,.45-.08Z"/><path class="cls-1" d="M98.46,49.92l.25,0h.51l.25,0v6a1.58,1.58,0,0,0,.05.46.61.61,0,0,0,.14.25.41.41,0,0,0,.21.11l.25,0h.21l.2,0a3.16,3.16,0,0,1,.09.79,1.36,1.36,0,0,1-.35.07l-.38,0a2.07,2.07,0,0,1-.56-.07,1.2,1.2,0,0,1-.46-.24,1.12,1.12,0,0,1-.31-.45,1.85,1.85,0,0,1-.11-.69Z"/><path class="cls-1" d="M101.16,56.56a3.55,3.55,0,0,0,1.29.24,2,2,0,0,0,.46-.05,1.21,1.21,0,0,0,.38-.16.87.87,0,0,0,.26-.25.6.6,0,0,0,.1-.34.68.68,0,0,0-.08-.34.73.73,0,0,0-.21-.23,1.39,1.39,0,0,0-.3-.16l-.37-.13-.36-.13a2.55,2.55,0,0,1-1-.56,1.17,1.17,0,0,1-.3-.84,1.38,1.38,0,0,1,.5-1.12,2.28,2.28,0,0,1,1.48-.41,4,4,0,0,1,.79.08,4.89,4.89,0,0,1,.68.18,2.53,2.53,0,0,1-.08.41,2.4,2.4,0,0,1-.14.38,5.37,5.37,0,0,0-.54-.16,2.84,2.84,0,0,0-.68-.08,1.62,1.62,0,0,0-.68.13.48.48,0,0,0-.3.48.59.59,0,0,0,.07.3.68.68,0,0,0,.2.21,1.31,1.31,0,0,0,.29.15l.35.12.46.16a3.41,3.41,0,0,1,.47.2,1.39,1.39,0,0,1,.38.29,1.33,1.33,0,0,1,.26.41,1.71,1.71,0,0,1-.06,1.29,1.54,1.54,0,0,1-.44.54,2.12,2.12,0,0,1-.69.35,3,3,0,0,1-.89.12,5,5,0,0,1-.87-.07,4.43,4.43,0,0,1-.69-.18A2.06,2.06,0,0,1,101,57Z"/></g><path class="cls-2" d="M64.5,61.93a0,0,0,0,0,0,0h0l.18.13c-.06-.05-.16-.17-.18-.16S64.5,61.93,64.5,61.93Z"/><path class="cls-3" d="M64.68,62.08,64.51,62h0a0,0,0,0,1,0,0h0v0s0,0,.13.09l.07.07Zm-.16-.15h0l.05,0Z"/><path class="cls-4" d="M59.77,18.94s.57-.68.65-.71-.23.78.45,0a7.91,7.91,0,0,0,1.27-2c0-.1,0-.14-.14-.12s0-.19-.29.06a5.87,5.87,0,0,0-.68.69,6.53,6.53,0,0,0-.91,1.42C60.06,18.46,59.74,18.92,59.77,18.94Z"/><path class="cls-4" d="M61.37,16.24c.1-.16-.1,0-.22.14a3.37,3.37,0,0,0-.5.53C60.23,17.44,61.16,16.56,61.37,16.24Z"/><path class="cls-4" d="M58.54,20.71c-.19.32.2-.13.32-.37S58.74,20.39,58.54,20.71Z"/><path class="cls-4" d="M62.06,15.57a9.23,9.23,0,0,0,1-1A7.57,7.57,0,0,0,62.06,15.57Z"/><path class="cls-4" d="M59.23,19.45s0-.13-.2.16S59.23,19.45,59.23,19.45Z"/><path class="cls-4" d="M113.62,16.81c.28.41-.05-.21.09-.06l.08.07q-.38-.54-.8-1.09A8.35,8.35,0,0,0,113.62,16.81Z"/><path class="cls-4" d="M54.62,20.07c-.16.27-.42,1-.63,1.45s.11-.55-.1,0a5.5,5.5,0,0,0-.24.79s0-.08.07-.08a2.45,2.45,0,0,0,.15-.26c.32-.86.71-1.51.95-2.11C55,19.52,54.75,19.86,54.62,20.07Z"/><path class="cls-4" d="M110.57,12.34c.51.56,1.41,1.73,1.45,1.71a14.49,14.49,0,0,0-1.88-2.18C110,11.76,110.43,12.17,110.57,12.34Z"/><path class="cls-4" d="M114.72,18.37c.11.23.43.84.59,1.12s-.13-.41-.49-1.08l-.48-.76C114.45,17.85,114.65,18.21,114.72,18.37Z"/><path class="cls-4" d="M108.8,14.34c.35.37.65.68,1,1.06A30.53,30.53,0,0,1,113,19.65a14.77,14.77,0,0,1,1.7,3.13,1.44,1.44,0,0,0,.1.22,7.33,7.33,0,0,1,.73,0h.28a11.4,11.4,0,0,0-.61-1.7c-.18-.29.06.46-.26-.22-.19-.41-.27-.61-.36-.86s-.22-.47-.24-.57.52.94.48.8-.62-1.37-.77-1.7c0-.12.13.13.05,0s-.33-.61-.43-.83.42.67.35.52c-.14-.36-.87-1.41-1-1.61s.6.86.56.75-.59-.93-.65-1.07-.25-.27-.4-.49c-.32-.48-.08-.26-.27-.58s-.64-.78-.78-1,.49.46.68.67-.71-1-.53-.78a32.53,32.53,0,0,1,2.3,3.39c.19.29.37.52.23.23s-.65-1-.85-1.34-.68-1.1-1-1.62-.89-1-1.32-1.41a4.71,4.71,0,0,0-.51-.53l-.36-.38c-.23-.24.49.39.24.13a23.14,23.14,0,0,0-2.85-2.65c-.47-.36.94.79,1.35,1.21,1.12,1.14,0,0-2-1.54a36.29,36.29,0,0,0-6.42-4c-.41-.2-.77-.33-1.19-.51a46.75,46.75,0,0,0-4.84-1.85,18.57,18.57,0,0,0-2.27-.57c-.62-.1-.75-.06-1.3-.11a17.43,17.43,0,0,1-1.8-.26s.87.11,1,.11a9.09,9.09,0,0,0-1.28-.22c-.63-.12.52-.17,1.58,0a12.72,12.72,0,0,1,1.52.4c.58.12.43,0,1,.08a28.66,28.66,0,0,1,6.24,1.94c.53.23.66.36,1.17.6s.67.22,1.22.48c.34.16.07.12.43.31.56.31.54.4,1.09.72s.43.16.29,0A25.44,25.44,0,0,0,96.56,3.7,34.9,34.9,0,0,0,91,2.27c-.75-.12-1.35-.13-2.1-.21a15.3,15.3,0,0,1-2.09-.36A22,22,0,0,0,80.41,2c-.31.06-.76.11-1,.18-.65.16-.6.24-.23.23s1-.15,1.31-.16-.31.12-.77.21a13.64,13.64,0,0,1-1.59.14A23.69,23.69,0,0,0,74,3.71,27.06,27.06,0,0,0,67,7c-.34.28,1-.53,1.22-.55s1-.37.33,0-1,.48-1.63.87c-.83.5-1.56,1.09-2.37,1.68-1.32,1-1.34.73-2.61,1.83a8.39,8.39,0,0,0-.88,1c-.28.3-.73.75-.9,1s.82-.84,1.14-1.1-.57.58-.72.78c-.48.62.56-.29,0,.38-.12.14-.43.43-.53.57a49.05,49.05,0,0,0-4.77,7.45c-.53,1.05-1.2,2.83-1.2,2.83.15-.31,1.55-2.91,1.7-3.16.3-.53.06,1,.29.64.11-.16.14.52.21.48s0,0,.05,0a4.81,4.81,0,0,1-.15.48,7.49,7.49,0,0,0-.33,1.22c0,.31.93-1.48,1.65-2.47s.78-.73,1.68-2.11c.37-.55.33-.62.6-1.06A17,17,0,0,1,62.45,15c.26-.24.6-.65.84-.86a7.6,7.6,0,0,1,1.55-1.17s-.54.55-.48.54,1.29-1.12,2-1.67A7.27,7.27,0,0,1,67.86,11C69,10.31,71.59,8.79,73,8.07c.66-.35.73-.46,1.24-.73a10.3,10.3,0,0,1,1.55-.63c.68-.21,1-.23,1.63-.39a32.89,32.89,0,0,1,4.68-.87c.56,0,.69,0,1.19,0s1.21-.11,1.89-.13a29.9,29.9,0,0,1,4.52.18c1.75.18,4.35.94,4.91,1A8.71,8.71,0,0,0,93.05,6c-1.51-.4-3.54-.6-4.48-.77C87.32,5,91.11,5,93.15,5.6c.57.15.83.27,1.38.44.87.27,1.64.44,2.55.77s1.44.62,2.21,1,.79.25,1.37.5a18.55,18.55,0,0,1,1.91,1.06A29.53,29.53,0,0,1,108.8,14.34Z"/><path class="cls-2" d="M54.15,23.76v0Z"/><path class="cls-4" d="M117.85,22c-.21-.36-.42-.71-.26-.42l.28.55S117.86,22,117.85,22Z"/><path class="cls-4" d="M114.16,19.41c-.3-.44.22.53-.09.08a7.38,7.38,0,0,0-.83-1.13c-.09-.06-.77-1-.61-.69s.55.95.93,1.6c.2.27.4.54.59.83l.24.37c-.07-.2-.06-.27.08-.11a3.17,3.17,0,0,1,.58.73c.46.77.55,1.16.41,1.07l.48.82.26,0C115.64,22.07,114.82,20.33,114.16,19.41Z"/><path class="cls-4" d="M114.85,18.81c.21.45-1.22-1.71-2-2.67-.53-.64-1.35-1.8-1.75-2.21s.89,1.23.8,1.18.54,1.44.62,1.36,1,.59,2.12,2.51c.3.52-.29-.3-.09.08.49.92,1.13,2.19.79,1.8-.13-.17-1-1.63-1-1.61s1.58,2.6,1.87,3.33c.16.37-.84-1.42-.76-1.2s.59,1.18.8,1.62l.17,0a10,10,0,0,1,1.66.26c-.15-.57-.3-1.14-.48-1.71-.42-.71-.51-1.3-.85-1.82s-.62-.92-.83-1.21a4.82,4.82,0,0,0-1-1.08c-.14-.08-.82-.84-.15.14.37.59,0-.19.35.33.73,1.06,1.68,3,1.37,2.63s-1.92-3.28-2.88-4.5c-.59-.79.24.59.12.54a10.81,10.81,0,0,1-.91-1.09c-.54-.64-1.19-1.69-1.75-2.25-1-1.16,2.28,2.87,3,4.3A12.61,12.61,0,0,1,114.85,18.81Zm-.52-1.45a8.09,8.09,0,0,1,1.13,1.56c.31.55-.43-.55-.34-.34s.2.56-.13.12-.93-1.64-.65-1.34Z"/><path class="cls-4" d="M115.58,20l0-.06.16.55C115.9,20.7,115.83,20.33,115.58,20Z"/><path class="cls-4" d="M115.58,17.45c-.6-.88-.73-1-1.2-1.58-.2-.29-.88-1.18-.6-.79.8,1.19,1.65,2.46,2.2,3.32C116.35,19,116.05,18.22,115.58,17.45Z"/><path class="cls-4" d="M116.15,21.95c.35.69.06-.08-.28-.84l.15.57Z"/><path class="cls-4" d="M110.74,12.66c.26.43-1.42-1.56-2.28-2.42-.6-.58-1.55-1.63-2-2-.29-.25,1,1.12.93,1.08-.25-.09.7,1.37.77,1.28s1.05.47,2.4,2.24c.36.48-.32-.27-.08.09.6.86,1.38,2,1,1.7-.14-.16-1.17-1.51-1.19-1.48s1.87,2.4,2.24,3.09c.2.34-1-1.31-.9-1.1s1.44,2.15,1,1.63c-.66-.83-1.72-2.57-2.53-3.45-.35-.4.28.5-.08.09a7.31,7.31,0,0,0-1-1c-.1,0-.88-.9-.69-.62s.65.88,1.1,1.48c.23.24.46.49.69.76l.29.34c-.1-.19-.09-.26.07-.12a3.19,3.19,0,0,1,.66.66c.55.72.68,1.09.53,1q.45.59.88,1.18c-.09-.16-.14-.26-.09-.2a10.38,10.38,0,0,1,.86,1.31c.83,1.22.9,3.27,1.54,4.79l.64,0c.25,0,.51,0,.76,0q-.15-.65-.32-1.34c-.49-1-1-1.94-.66-1.54a5.82,5.82,0,0,1,.52,1l-.18-.66a2.65,2.65,0,0,1-.24-.38c-.46-.81-.22-.59.09-.16a38.89,38.89,0,0,0-1.75-4.82c-.5-.65-.65-1.23-1.05-1.71s-.72-.84-1-1.1a4.87,4.87,0,0,0-1.09-1c-.15-.06-.92-.74-.14.15.44.55,0-.19.38.29.85,1,2,2.75,1.67,2.45s-2.29-3-3.38-4.13c-.68-.72.31.56.19.52a10.54,10.54,0,0,1-1-1c-.61-.57-1.38-1.54-2-2-1.14-1,2.6,2.59,3.51,3.92A11.43,11.43,0,0,1,110.74,12.66ZM113,17.11c.45.5,1.54,2.93.87,1.76-.08-.13.08.09,0,0-.54-.92-1.28-2.2-.89-1.74Zm-2.94-5.83a8,8,0,0,1,1.3,1.42c.37.51-.49-.5-.38-.3s.27.54-.12.13-1.12-1.52-.8-1.25Z"/><path class="cls-4" d="M115.94,23h.16l-.18-.41c-.48-.92-.6-1-1-1.66-.16-.3-.71-1.24-.49-.82C115,21.11,115.52,22.15,115.94,23Z"/><path class="cls-4" d="M111.93,17.49c.21.44-1.17-1.65-1.88-2.56-.5-.61-1.28-1.73-1.65-2.12s.85,1.18.76,1.14.55,1.41.61,1.33.9.53,2,2.4c.29.51-.26-.29-.07.08.48.9,1.11,2.13.79,1.76-.12-.17-.95-1.58-1-1.55s1.52,2.51,1.81,3.23c.16.36-.81-1.37-.73-1.16s1.16,2.24.82,1.69c-.54-.87-1.39-2.68-2-3.61-.28-.42.22.52-.07.08a7.34,7.34,0,0,0-.78-1.08c-.08-.05-.73-.95-.57-.66s.53.92.9,1.55c.19.26.37.52.56.8l.24.36c-.08-.2-.07-.26.06-.11a3.14,3.14,0,0,1,.54.71c.44.75.54,1.13.42,1q.37.61.71,1.23c-.08-.17-.11-.27-.07-.2a10.42,10.42,0,0,1,.66,1.29l.1,0c-.33-.75-.6-1.39-.36-1a6.25,6.25,0,0,1,.47,1A7.22,7.22,0,0,1,115.3,23c-.24-.95-.52-1.91-.84-2.87-.41-.69-.52-1.27-.84-1.78s-.59-.89-.79-1.17a4.61,4.61,0,0,0-.91-1c-.12-.07-.76-.8-.13.14.36.57,0-.19.32.32a9.38,9.38,0,0,1,1.34,2.55c-.33-.46-1.86-3.18-2.76-4.34-.56-.76.24.58.14.53a10.43,10.43,0,0,1-.86-1c-.51-.61-1.14-1.63-1.65-2.16-1-1.11,2.15,2.75,2.88,4.14A13.33,13.33,0,0,1,111.93,17.49Zm-.53-1.42a7.94,7.94,0,0,1,1.07,1.5c.3.53-.41-.53-.32-.32s.21.55-.11.12S111.13,15.78,111.39,16.07Z"/><path class="cls-4" d="M114.92,20.4c.22.43.42.81.59,1.09s.13.09-.05-.32C115.12,20.42,114.59,19.74,114.92,20.4Z"/><path class="cls-4" d="M53.24,21.56c-.19.41-.38,1-.29.93s.59-1.25.67-1.46S53.49,21.05,53.24,21.56Z"/><path class="cls-4" d="M59.35,12.77c-.26.29.24-.14.24-.14S59.61,12.49,59.35,12.77Z"/><path class="cls-4" d="M56.79,17.84c.23-.41-.36.28-.66.82S56.56,18.25,56.79,17.84Z"/><path class="cls-4" d="M52.67,23.07c-.13.32,0,.36-.16.72.09,0,0,0,.11-.06.31-.88.87-2.06.82-2.08s-.45,1.07-.53,1.17S52.89,22.58,52.67,23.07Z"/><path class="cls-4" d="M57.61,15.24c.07-.07.24-.33.38-.51.29-.41.78-1,.76-1a6.87,6.87,0,0,0-1,1.22C57.59,15.16,57.46,15.38,57.61,15.24Z"/><path class="cls-4" d="M52.12,23.64c.24-.27.22-.22.26-.33.11-.28-.05-.09.05-.33s.08-.32.2-.62c.27-.66.16-.15.36-.55.67-1.38,2-4.65,3.15-6,.26-.34-.06.22-.28.6-.12.2-.29.32-.39.52-.21.42-.78,1.33-.78,1.42s.62-.94.57-.79-.34.67-.59,1.14-.29.4-.51.83c-.34.63-.37,1-.18.63.09-.17.32-.62.46-.85.59-1,1.36-2.11,2.09-3.24.23-.36-.47.63-.59.76a10.39,10.39,0,0,1,.85-1.37c.28-.39.34-.35.63-.73A24.11,24.11,0,0,1,61,10.63c.05.05-1.89,1.85-2.59,2.85-.14.18.14-.12.24-.22s.36-.38.67-.69.19-.27.4-.5.63-.64.9-.92.54-.51.69-.67c.54-.62,0-.19.07-.39s-.65.58-.5.41a19.3,19.3,0,0,1,3-2.48c.32-.25.69-.5,1-.75a15.64,15.64,0,0,1,1.39-.82c.52-.32.1-.16.2-.28A14.5,14.5,0,0,1,69.3,4.56s-1.36.71-1.67,1,.3-.13.31-.11-.16.22.33-.07A19.17,19.17,0,0,1,70.82,4c.13,0-.85.43-.57.31.45-.2.75-.31,1.18-.5L74.1,2.73c.56-.26,1.74-.63,1.18-.52-.21,0-.76.23-.92.28-.66.12-3,1-2.48.73a26.61,26.61,0,0,1,2.75-.93c.46-.14.2-.13.6-.26a19.3,19.3,0,0,1,2.2-.51c.55-.13.41-.16.93-.28s1.07-.16,1-.1-1.74.36-2.19.56c-.17.06.33,0,.33,0s-.35.15,0,.08c.7-.12,1.35-.34,2.2-.48.56-.08-.17.09,0,.1s1.91-.23,2.55-.3a18.18,18.18,0,0,0-1.93.07A18.92,18.92,0,0,1,83.53,1C85,.89,86.9,1,88,1s-1.48-.3-.62-.3c.28,0,1,.11,1.29.11s.15-.07.65,0c.33,0,.71.09,1,.14,1,.19.93.34,2.19.59.7.16.61.05,1.28.2a23.11,23.11,0,0,1,4.3,1.39c.26.12.06.08.27.18.86.43.64.51,2,1.13.51.24-.13-.14,0-.09s.33.06.35,0,.37.12.33.06-.94-.61-.5-.46a16.38,16.38,0,0,1,1.68,1c.18.1-.12-.12,0,0,.45.3,1.44.76,1.69,1,.4.32-1.41-.75-1.75-.86-.11,0-.45-.19-.32-.1.47.31,2.2,1.33,3,1.86.39.23,0-.08.33.1s1,.75,1.3,1,.15,0-.18-.29-.86-.65-1.31-1-.58-.46-1-.78-.72-.38-1.14-.64-.52-.34-.84-.5c-.7-.39-1.31-.72-2-1.05A28.16,28.16,0,0,0,97.27,2.5c-.45-.16-.51-.11-.94-.27s0-.09-.27-.21-1-.22-1.59-.39c-.29-.07-.65-.18-.94-.24-.83-.18-1.08-.15-1.93-.29s.15-.08,0-.16A4.66,4.66,0,0,0,90,.53c-.58-.08.1.1-.33.06-.24,0,.78.14.64.14-.3,0-1-.11-1.63-.14C87.84.49,87,.48,86.11.42A22.23,22.23,0,0,0,82.84.33c-.32,0,0,0-.32.08l-1,.11c-1.19.14-2.81.52-3.53.6-.18,0,.9-.2.63-.16-.94.13-1.27.14-2.26.35-.58.12.76-.12,1-.13s-.7.17-.95.25l-.62.2c-.27.09-.33.05-.64.14-.69.18-1.18.42-1.84.64s-.71.19-1.25.38-1.18.52-1.79.79c-.3.13.34-.09,0,.06-.75.33-1.1.47-1.79.8-.51.25-.21.18-.52.4s-.56.33-.84.49c-.55.3-.37.11-.89.42l-.73.46.19-.1c.52-.27-.45.39-1.61,1.28s-2.48,2.05-2.94,2.41,1-1,1.12-1.19c0,0-.34.31-.49.43a18.87,18.87,0,0,0-1.71,1.53c-.67.66,1-.84.58-.34-.15.17-.37.28-.49.43-.39.44-1,1.13-1.48,1.74s-.82,1.14-1.35,1.83c-1,1.22,1.36-2.05,1.9-2.65.29-.43-1.09,1-1.8,1.9s-.94,1.32-1.48,2.16c-.27.42-.52.65-.75,1.07s-.13.37-.42.9-.28.28-.58.8-.29.68-.56,1.18.11-.4-.09,0-.16.51-.36.92a34.19,34.19,0,0,0-1.38,3.24c0,.1,0,.24,0,.24S52,23.66,52.12,23.64ZM99.28,3.58c.89.37,1.41.93.5.46a9.45,9.45,0,0,1-.84-.48C98.75,3.45,98.74,3.37,99.28,3.58ZM80,.95c.34-.07.51,0,1-.07s.82-.1,1.29-.15c.22,0,.42,0,.64-.05a27.66,27.66,0,0,1,3.24,0c.16,0,.05,0,0,0h-.65c-.25,0-.33,0-.64,0C82.89.71,78.59,1.22,80,.95Zm-7.85,2c.68-.31,1.4-.36.65-.11S71.43,3.21,72.11,2.91Zm-1.37.92c.57-.31,1.1-.29.36,0S70.17,4.14,70.74,3.83ZM57.5,13.54c.33-.42.08.07.08.07a.9.9,0,0,1-.16.28C56.94,14.54,57.06,14.15,57.5,13.54ZM56,15.68c.21-.33.56-.76.42-.51s-.44.76-.69,1.11,0-.11.28-.6Zm-4,7.5c.2-.59.55-1.12.33-.58,0,.1,0-.11,0,0-.16.41-.36,1.08-.45,1.22s0-.16.14-.64Z"/><path class="cls-4" d="M113.16,51.87a3.69,3.69,0,0,0-.33.63s.25-.27.5-.69l.06-.12C113.46,51.52,113.34,51.64,113.16,51.87Z"/><path class="cls-4" d="M112.83,52.52h0a2.89,2.89,0,0,1,.33-.64h0c.22-.29.24-.27.26-.26s0,0,0,.1l-.06.12C113.21,52,112.91,52.52,112.83,52.52Zm.34-.64c-.09.15-.32.55-.33.62a2.92,2.92,0,0,0,.48-.68l.06-.12a.23.23,0,0,0,0-.07,1.1,1.1,0,0,0-.23.25Z"/><path class="cls-4" d="M115.9,47.77c0,.23-.11.1-.13.1s0,0,0-.1h-.17c0,.09-.08.18-.1.18a1.19,1.19,0,0,1,0-.19h-.05c-.09.17-.87,2.15-.84,1.89a9.1,9.1,0,0,1,.31-.91c.12-.33.32-.84.36-1a0,0,0,0,1,0,0h-.1l0,0c-.11.13-.2.24-.15,0v0h-.07l0,0a1.06,1.06,0,0,0-.12.24c-.12.28-.08.32-.19.58-.47,1-1.25,2.41-1.2,2.11,0-.12.56-1.16.49-1.11s0-.09,0,0c-.23.39-.8,1.29-1.2,2.08-.33.58.29-.3.27-.19s-.41.81-.37.83,1.52-2.61,1.56-2.6a22.27,22.27,0,0,1-1.28,2.41c-.57,1.07-.93,1.89-.24.92.24-.37-.18.16-.09-.05a7.27,7.27,0,0,1,.69-1.05c.2-.35.45-.77.59-1s.47-.78.29-.39a11.82,11.82,0,0,1-.71,1.36c-.13.24-.41.64-.57.93-.35.61.48-.6.28-.19-.3.59,0,.48-.67,1.4-.38.57.4-.73.24-.58-.31.3-.33.18-.72.63-.1.11.07-.19-.05,0-.37.48-1.19,1.65-1.68,2.17-.22.26.58-.75.71-1a13.79,13.79,0,0,0-1,1.17c-.22.29.15-.05-.13.29s-.32.48-.56.73c-.47.48.15-.31-.11-.09-.1.09-.41.53-.38.48s-.68.67-.46.41A25.39,25.39,0,0,0,110,56.05c.09-.14-.47.53-.42.44s.56-.72.53-.73-.64.73-1,1.15-.7.77-1,1.13-.47.61-1,1.14a6.74,6.74,0,0,1-.65.63c-.5.37,1-1.12,1.37-1.63.09-.12-.53.58-.63.65s-.71.61-1.17,1-1.26.93-.77.49c.18-.16.49-.35.48-.36s.73-.66.87-.83-1.39,1.22-1.81,1.57.61-.31.12.14c-.33.31-1,.76-1.44,1.1-1,.77-2.25,1.53-3,2-.43.3-1.08.67-.73.56a12.25,12.25,0,0,0,1.28-.81c.46-.27-.09.13.05.09a23.48,23.48,0,0,0,2.33-1.43,17,17,0,0,1-1.5,1c-.35.25-.91.49-1.32.76l-.52.33a14.56,14.56,0,0,0,1.92-.95,12.86,12.86,0,0,1-2.12,1.21c-.6.27-.16,0-.62.13l-.82.4c-1,.5-2,.92-2.49,1.17-.16.1.77-.31,1.14-.45s.06.06-.24.21a8.36,8.36,0,0,1-1.12.51c-.9.36-2.37.62-2.66.77s-.15.14.32,0c.26-.07.35-.16.58-.21s.28,0,.61-.11c.53-.16,1.2-.42,1.74-.61s-.69.31-.84.39a20,20,0,0,0,2.35-.78,7.59,7.59,0,0,1-.85.37,16.16,16.16,0,0,1-2,.76c-.21.06.84-.34.57-.24s-.89.27-.89.28,0,.07-.27.18.69-.19.6-.15a1.84,1.84,0,0,1-.29.14c1-.32,2-.69,3.09-1.13,1.35-.51,3.84-1.8,3.12-1.31a16.28,16.28,0,0,1-1.51.76A28.53,28.53,0,0,1,93.55,68a32.55,32.55,0,0,1-5.59.85s.26,0,.1.08a18.08,18.08,0,0,1-1.87.14c-.65.06-1.28.06-1.87.08-.75,0-.59.1-1.26.11-.37,0-.22.05-.63.05-.83,0,.24-.11,0-.18s-1.63-.06-2.19-.17c-.33-.06.79.07.94,0a7.17,7.17,0,0,0-1.53-.3c-.48-.07.88.19.61.17s-1.4-.22-1.85-.3c-.22,0,.9.2.61.16-.46-.07-.16,0-.63,0s-.47-.16-.91-.24h-.07a2.1,2.1,0,0,0,.47.18c.42.11.84.19,1.25.27a.42.42,0,0,1,.19,0c.16,0,.26.07.12.08l1.57.24c1.31.19,2.24.33,3.42.42.41,0,.77.05,1.23.05h.74a32.19,32.19,0,0,0,3.67-.4l.73-.11a17.68,17.68,0,0,0,2.85-.76c.68-.25,1.06-.45,2.06-.8.65-.21,2.19-.83,1.84-.64s-1.39.56-1.12.49A11.24,11.24,0,0,0,97.57,67a27.66,27.66,0,0,0,3.51-1.72,24,24,0,0,0,2.29-1.4,4.82,4.82,0,0,0,1.12-1c-.12,0-1.19.6-.54.08s1.6-1.26,2.41-2c.51-.47.7-.8,1.17-1.21s.45-.28.81-.55.76-.79,1-1,0,.11.06.05.7-.69.57-.47c-.23.39-1,1.35-.82,1.22a8.62,8.62,0,0,0,.86-.87,28.15,28.15,0,0,0,2.91-3.94A71.6,71.6,0,0,0,116,47.75ZM103.13,62.37a5.63,5.63,0,0,1-1,.63,4,4,0,0,1,.47-.38C103.05,62.32,103.4,62.14,103.13,62.37Zm-4.23,3s.36-.07.05.11a12.18,12.18,0,0,1-1.39.67c-.19.07,0,0,0,0s.54-.35.78-.53-.78.27-.61.14a13,13,0,0,1,1.4-.62C99.53,65,98.88,65.35,98.9,65.39ZM88.08,69.16a7.53,7.53,0,0,1-1.88.08A13.75,13.75,0,0,1,88.08,69.16Zm1.86-.28c-.54.09-1,.07-.64,0,.17,0,.06-.05.3-.08.77-.11,1,0,.33.09Zm1.86-.28c-.22,0,0,0,0,0s.67-.23,1.21-.35c.68-.16-.51.23-1.2.39Zm8.79-3.14a1.73,1.73,0,0,1-.68.27s1.06-.46.68-.27Zm3.1-1.91a7.46,7.46,0,0,1-1.23.78,10.59,10.59,0,0,1,1.23-.78ZM106,60.13c-.27.26-.73.57-.49.35s.61-.59.89-.82-.06.15-.4.46Zm1.55-1c.48-.44,1.26-1.33,1.29-1.3a13.08,13.08,0,0,1-1.29,1.3Zm2.74-2.48c-.14.2-.42.46-.61.7-.33.4-.66.82-1,1.17a9,9,0,0,1-1.1.95,3.47,3.47,0,0,1-.57.5,14.24,14.24,0,0,1,1-1l-.14.14c.16-.12.26-.16.3-.22s.2-.24.4-.47-.4.37-.25.18.58-.61.83-.9c.54-.62.74-1,1.31-1.7.26-.36.35-.38.6-.7s.57-.61.27-.19-.54.63-.77,1S110.55,56.25,110.27,56.64Zm1.6-1.89c-.14.28-1.15,1.41-.82.93S112,54.48,111.87,54.75Zm2.3-5c-.14.4-.64,1.27-.57,1s.72-1.44.57-1Zm1.21-1.06a7,7,0,0,1-1,2,5.32,5.32,0,0,1,.31-.92,4.43,4.43,0,0,1,.15-.46c.35-.76.33-.44.29-.14,0,.08.25-.57.21-.44Z"/><path class="cls-4" d="M85.81,69.71h-.15c-.37,0-.67,0-1,0h-.24c-1.16-.09-2.06-.22-3.42-.42l-.51-.08L79.45,69h.05a.33.33,0,0,0-.17,0,.43.43,0,0,0-.19,0h0c-.47-.08-.86-.17-1.25-.27a1.53,1.53,0,0,1-.36-.13l-.11-.05v0h.07a2.61,2.61,0,0,1,.46.12,2.6,2.6,0,0,0,.45.12.71.71,0,0,0,.32,0h.11c-.45-.1-.45-.1-.45-.12s0,0,0,0l.32.06c.51.09,1.2.21,1.51.24l-.42-.1c-.28-.06-.28-.06-.28-.08s0,0,.12,0l.65.11c.79.13.94.16.94.19s0,0,0,0a5.9,5.9,0,0,1-.68,0h-.16c.36.05.94.08,1.42.11s.6,0,.67,0,0,0,0,0-.07.05-.22.09l-.14,0,.3,0a1.32,1.32,0,0,0,.34,0,1.27,1.27,0,0,1,.3,0,3.28,3.28,0,0,0,.6,0,4.63,4.63,0,0,1,.65-.06h.39c.48,0,1,0,1.48-.07S87.84,69,88.06,69l0,0-.07,0c-.05,0-.08,0-.08,0h0A32.31,32.31,0,0,0,93.55,68a28.5,28.5,0,0,0,5.88-2.19l.48-.23a8.61,8.61,0,0,0,1-.53l.12-.09c-.08,0-.58.24-1.11.48s-1.51.7-2.12.93c-1.11.46-2.12.82-3.09,1.13v0L95,67.4l-.19.05c-.37.1-.38.1-.38.08s0,0,0,0c.28-.11.27-.14.26-.17h0l.28-.09.61-.19h0l-.05,0-.46.18A16.83,16.83,0,0,0,97,66.51l.28-.12.47-.2-.63.23a7.49,7.49,0,0,1-1.65.53s0,0,0,0l.41-.18.44-.19-.67.24c-.37.13-.74.27-1.07.37l-.33.06-.28,0a1.37,1.37,0,0,0-.27.1,1.68,1.68,0,0,1-.31.11c-.27.07-.42.09-.43,0s0-.06.1-.08A6.12,6.12,0,0,1,94,67.2a14.36,14.36,0,0,0,1.76-.51,5.86,5.86,0,0,0,.85-.38l.27-.13a3.64,3.64,0,0,0,.45-.25l-.19.06-.62.25c-.54.22-.54.22-.55.21s0,0,0,0c.23-.13.6-.29,1-.49s1-.43,1.46-.68l.44-.21.38-.18c.2-.08.24-.07.26,0s0,0,.35-.1a17.83,17.83,0,0,0,2.13-1.19l-.68.35c-1,.54-1.27.66-1.29.63s0,0,0-.06l.24-.16.28-.17c.19-.12.41-.24.62-.35a6.23,6.23,0,0,0,.7-.41l.23-.15,1.24-.85-.38.24a15.57,15.57,0,0,1-1.91,1.15s0,0,0,0,0,0,.09-.11l.06-.06-.16.08c-.24.14-.45.29-.64.42a3.19,3.19,0,0,1-.65.39c-.08,0-.11,0-.11,0s.07-.09.41-.31l.42-.28.78-.51a26.19,26.19,0,0,0,2.2-1.52l.37-.27a11.8,11.8,0,0,0,1.07-.83.75.75,0,0,0,.13-.13l-.16.07c-.14.07-.18.09-.2.07s0,0,.11-.15l.88-.78c.9-.81,1-.84,1-.83s0,0,0,.05a6.39,6.39,0,0,1-.51.48,4.68,4.68,0,0,0-.36.34h0s0,0-.13.11a3.57,3.57,0,0,0-.35.26l-.15.14a6.67,6.67,0,0,0,.9-.65c.25-.19.51-.41.73-.59l.44-.36c.06,0,.3-.3.46-.48s.18-.19.19-.18,0,0,0,0c-.16.23-.55.64-.89,1a8.44,8.44,0,0,0-.58.65l.08-.05a7.23,7.23,0,0,0,.65-.63,8.53,8.53,0,0,0,.66-.74l.33-.4.56-.63.45-.5.24-.29c.64-.77.73-.88.76-.86s0,0-.26.38l-.23.3.16-.18c.2-.23.21-.23.22-.22s0,0,0,0a22.09,22.09,0,0,1-1.66,2l0,0,0,0c.27-.26.3-.29.31-.28l.08-.1a3.12,3.12,0,0,1,.3-.37s.07,0,.08,0,0,0-.07.17l-.06.11.16-.15a2.58,2.58,0,0,0,.3-.38,4,4,0,0,1,.26-.34.81.81,0,0,0,.11-.14h0s0,0,0,0,0,0,.07-.14l.46-.57c.51-.64.53-.66.55-.65s0,0,0,.06-.37.53-.57.79l0,0c.36-.41.85-1.08,1.21-1.57l.35-.47s0-.05.06,0,0,0,0,.06v0h0a2,2,0,0,1,.44-.4,1.66,1.66,0,0,0,.28-.23s0,0,0,0,0,.07-.22.47l-.1.19,0-.07a2.67,2.67,0,0,0,.48-.93,2.06,2.06,0,0,1,.18-.47l0-.06s-.12.15-.19.23-.18.22-.2.21,0,0,.08-.19.19-.32.3-.49.2-.32.27-.44a11.76,11.76,0,0,0,.71-1.36l0-.12a4.44,4.44,0,0,0-.32.52l-.41.73-.17.3a7.27,7.27,0,0,0-.69,1.05v0l.09-.08c.06-.05.07-.06.08-.05s0,0-.07.15c-.33.47-.37.45-.38.43s0,0,.14-.44c.11-.24.28-.57.47-.93l.08-.14c.35-.62,1.16-2,1.2-2.24-.05.08-.22.38-.42.73a12,12,0,0,1-1.12,1.85h0s0-.07.16-.38a2.84,2.84,0,0,0,.21-.45l-.16.19c-.15.18-.18.21-.2.2s0,0,.09-.21c.33-.64.76-1.35,1-1.81l.16-.27s0,0,0,0,0,0,0,0h0s0,.12-.32.75c-.08.18-.16.33-.17.37a.09.09,0,0,0,0,0,12.53,12.53,0,0,0,1.18-2.14,1.6,1.6,0,0,0,.1-.28,1.87,1.87,0,0,1,.1-.29l0-.06a.88.88,0,0,1,.09-.18l0,0H115v0c0,.13,0,.14,0,.14s.08-.07.12-.12v0h.13v0h0c0,.11-.14.4-.24.68l-.12.31-.12.33a4.34,4.34,0,0,0-.19.57c.07-.11.36-.81.56-1.28.13-.31.23-.56.26-.62v0h.06v.17a1,1,0,0,0,.08-.17h.19s0,.09,0,.09l0,0s0,0,0,0,0,0,0-.12h.16v0c-.07.12-.24.5-.47,1a48.55,48.55,0,0,1-2.66,5.43A28.43,28.43,0,0,1,110,58.14a8.33,8.33,0,0,1-.86.88s0,0,0,0,.06-.16.38-.58c.18-.24.38-.5.47-.66v0l-.26.24a3.48,3.48,0,0,1-.3.27s0,0,0,0,0,0,0-.07v0l0,0c-.11.1-.26.26-.42.44a7.19,7.19,0,0,1-.6.6,1.21,1.21,0,0,1-.29.18,1.78,1.78,0,0,0-.52.37,6,6,0,0,0-.59.6,7.58,7.58,0,0,1-.58.61c-.57.53-1.21,1-1.77,1.49L104,63c-.19.16-.2.19-.2.2a2,2,0,0,0,.36-.15,1.6,1.6,0,0,1,.37-.15h0a5.67,5.67,0,0,1-1.13,1,22.45,22.45,0,0,1-2.14,1.31l-.16.09A26.91,26.91,0,0,1,97.58,67l-.22.09a8.23,8.23,0,0,1-.93.33s0,0-.05,0,0,0,.4-.18.64-.26.76-.33h0l-.81.29-1,.37c-.58.2-1,.36-1.29.5l-.77.3a17.89,17.89,0,0,1-2.85.76l-.4.06-.33.05a32.08,32.08,0,0,1-3.67.4A2.15,2.15,0,0,1,85.81,69.71Zm-.15,0h.73a32.08,32.08,0,0,0,3.67-.4l.33-.05.4-.06a17.87,17.87,0,0,0,2.85-.76l.77-.3c.33-.14.71-.29,1.29-.5l1-.37c.83-.31.87-.32.88-.3s0,0-.06,0-.48.21-.76.33l-.32.13c.2-.05.56-.2.88-.32l.22-.09a27.29,27.29,0,0,0,3.5-1.72l.16-.09a22.31,22.31,0,0,0,2.14-1.31,6.63,6.63,0,0,0,1.12-.93h0a1.85,1.85,0,0,0-.36.14c-.28.13-.37.16-.39.14s0-.05.21-.22l.64-.51c.56-.45,1.2-1,1.77-1.49a7.57,7.57,0,0,0,.58-.61,6,6,0,0,1,.59-.6,1.78,1.78,0,0,1,.52-.38,1.19,1.19,0,0,0,.29-.18,7.17,7.17,0,0,0,.59-.6c.16-.17.31-.34.42-.44s.07-.06.08,0,0,0,0,.07v0h0a3.51,3.51,0,0,0,.3-.27c.24-.23.28-.26.3-.25s0,0,0,.06-.3.43-.48.67a4,4,0,0,0-.38.55h0a8.44,8.44,0,0,0,.86-.87,28.34,28.34,0,0,0,2.9-3.94,48.56,48.56,0,0,0,2.66-5.43c.23-.52.39-.9.46-1h-.12c0,.08,0,.12-.06.13s0,0-.07,0h0s0,0-.06-.1h-.15c-.06.13-.08.18-.11.18h0s0,0,0-.1v-.09h0c0,.06-.14.32-.26.62a6.49,6.49,0,0,1-.59,1.31h0s0,0,0,0a4.09,4.09,0,0,1,.19-.58l.12-.33.12-.31c.11-.28.21-.57.24-.68h-.08v0c-.08.09-.12.14-.15.13s0,0,0-.16v0h-.05v0a.86.86,0,0,0-.09.18l0,.06a1.86,1.86,0,0,0-.1.29,1.62,1.62,0,0,1-.1.29c-.2.44-.47,1-.73,1.44s-.43.73-.48.72,0,0,0-.06l.17-.37c.12-.25.3-.63.32-.71h0s0,0,0,0h0l-.16.27c-.28.47-.71,1.17-1,1.81l-.09.17.16-.18c.15-.18.18-.21.2-.2s0,0,0,0a2.29,2.29,0,0,1-.21.46,2.65,2.65,0,0,0-.16.35,15.61,15.61,0,0,0,1.1-1.84c.43-.77.43-.77.45-.76h0a18.73,18.73,0,0,1-1.2,2.28l-.08.14a5.52,5.52,0,0,0-.62,1.34h0s.07,0,.35-.43l.06-.1,0,0c-.07.07-.1.1-.12.08s0,0,0-.07a7.22,7.22,0,0,1,.7-1.06l.17-.3.41-.73s.3-.54.36-.54h0s0,0,0,.16a11.8,11.8,0,0,1-.71,1.37c-.06.12-.16.27-.27.44s-.22.34-.3.49l-.08.14.15-.18c.18-.22.21-.26.23-.24s0,0,0,.1a2,2,0,0,0-.18.46,2.64,2.64,0,0,1-.49.94c-.11.16-.11.16-.12.15s0,0,.14-.3.19-.36.22-.43a1.67,1.67,0,0,1-.28.23,1.93,1.93,0,0,0-.43.39s0,0,0,0,0,0,0-.07v0l0,0-.35.47c-.41.55-1,1.31-1.33,1.71,0,0,0,.05-.05,0s0,0,.17-.25.49-.64.57-.78c-.09.1-.3.37-.49.61l-.46.57a.44.44,0,0,0-.07.11h0s0,0,0,0,0,0-.11.17a4,4,0,0,0-.25.34,2.59,2.59,0,0,1-.31.39c-.17.17-.18.16-.2.16s0,0,.06-.15l.07-.13,0,0a3.12,3.12,0,0,0-.29.36c-.09.13-.09.13-.1.12h0l-.28.27c-.2.2-.2.2-.22.19s0,0,0-.07l.11-.12c.55-.61,1.29-1.43,1.61-1.88l-.12.14c-.23.26-.23.26-.24.25s0,0,0,0,.16-.22.28-.38.2-.26.24-.33c-.1.1-.45.52-.71.83l-.24.29-.45.5c-.2.22-.38.42-.55.63l-.33.4a8.52,8.52,0,0,1-.66.74,7,7,0,0,1-.65.64c-.09.07-.11.06-.12.05s.07-.14.58-.69c.27-.29.57-.61.76-.85l0,0c-.17.18-.41.44-.47.48l-.44.36c-.23.19-.48.41-.73.59s-.39.31-.59.45-.34.21-.35.2,0,0,.16-.18a3.58,3.58,0,0,1,.35-.26l.12-.09s.05-.08.37-.36a6.61,6.61,0,0,0,.49-.47c-.14.11-.54.47-.9.79l-.88.78a.57.57,0,0,0-.11.11l.16-.07c.14-.07.18-.08.19-.07s0,0-.14.16a11.8,11.8,0,0,1-1.07.83l-.37.27c-.68.54-1.53,1.08-2.21,1.52l-.78.51-.42.28a3.63,3.63,0,0,0-.4.28l.08,0a3,3,0,0,0,.64-.38c.19-.13.4-.28.64-.42s.19-.1.2-.09,0,0-.07.1l-.08.08h0A16.1,16.1,0,0,0,103,62.6l.42-.27c.08,0,.08,0,.09,0a8.85,8.85,0,0,1-1.35.94l-.23.15a6.26,6.26,0,0,1-.7.41c-.21.11-.43.23-.62.35l-.28.17-.24.15,0,0c.11,0,.77-.37,1.25-.63l.68-.36h.06a15,15,0,0,1-2.18,1.23c-.33.15-.35.12-.38.09s0,0-.24,0l-.38.18-.44.21c-.5.25-1,.48-1.46.68s-.72.33-1,.45l.43-.18.62-.25c.22-.08.22-.07.23-.05s0,0-.47.28l-.26.13a5.88,5.88,0,0,1-.85.38,14.31,14.31,0,0,1-1.77.52,6.08,6.08,0,0,0-.89.25c-.07,0-.09,0-.09.06h0s0,0,.4-.06a1.66,1.66,0,0,0,.3-.11,1.38,1.38,0,0,1,.28-.1l.28-.05.33-.06c.33-.09.7-.23,1.07-.37l.68-.24c.12,0,.12,0,.12,0s0,0-.55.26l-.4.17h0c.13,0,1-.33,1.61-.54l.74-.26s0,0,0,0,0,0-.6.27l-.28.11a16.29,16.29,0,0,1-2,.76h0s0,0,.25-.12l-.24.07-.27.08s0,.08-.2.16l.26-.07c.27-.08.27-.08.28-.06s0,0,0,0l-.09.05c.9-.29,1.85-.64,2.87-1.06.61-.23,1.44-.62,2.12-.93.89-.41,1.12-.51,1.14-.48s0,0-.13.12a8.55,8.55,0,0,1-1,.54l-.48.23a28.53,28.53,0,0,1-5.89,2.19,32.29,32.29,0,0,1-5.55.85h0c.06,0,.09,0,.09,0s0,0-.06,0c-.23.07-1.49.12-1.87.14s-1,.06-1.48.07h-.39a4.62,4.62,0,0,0-.65.06,3.31,3.31,0,0,1-.61,0,1.25,1.25,0,0,0-.29,0,1.39,1.39,0,0,1-.34,0c-.33,0-.33,0-.33,0s0,0,.16-.07a.67.67,0,0,0,.2-.07h0c-.07,0-.33,0-.67,0A14.2,14.2,0,0,1,80.25,69c-.06,0-.07,0-.07,0s0,0,.33,0a6.2,6.2,0,0,0,.68,0h0c-.08,0-.5-.1-.9-.16l-.48-.08h0c.49.11.49.11.49.13s0,0,0,0c-.3,0-1-.15-1.54-.24l-.1,0,.2,0c.26.06.26.06.25.07s0,0-.06,0a.74.74,0,0,0-.3,0,.75.75,0,0,1-.33,0,2.62,2.62,0,0,1-.46-.12,2.58,2.58,0,0,0-.43-.12h0a1.51,1.51,0,0,0,.35.13c.38.1.78.18,1.24.26a.47.47,0,0,1,.2,0c.09,0,.2,0,.2.07a0,0,0,0,1,0,0l1,.15.51.08c1.35.2,2.26.33,3.41.42h.24c.33,0,.64,0,1,0Zm27.22-18.27h0ZM86.34,69.28a1,1,0,0,1-.27,0h0s0,0,.13,0l.92-.05c1-.07,1.06-.06,1.06,0s0,0-.1,0A13.77,13.77,0,0,1,86.34,69.28Zm-.2,0a13.53,13.53,0,0,0,1.94-.11h0l-1,.05-.92.05ZM89.31,69c-.1,0-.16,0-.16,0s0,0,.16-.07l.11,0a.49.49,0,0,1,.19,0c.08,0,.74-.1.75,0s0,.06-.42.14h0a4.36,4.36,0,0,1-.63.06Zm-.14,0a2.69,2.69,0,0,0,.77,0c.37-.07.4-.11.4-.11a2.31,2.31,0,0,0-.73,0,.48.48,0,0,0-.18,0l-.12,0-.13,0Zm2.55-.3h0s0,0,.08-.06h0s.68-.23,1.21-.35c.21-.05.21,0,.22,0s0,0-.5.19c-.33.1-.66.2-.91.26h-.09Zm.08-.05h0l0,0h.06a13.56,13.56,0,0,0,1.35-.4l-.15,0c-.51.12-1.17.34-1.2.35Zm5.68-2.36h0s0,0,0,0l0,0h0s.08-.09.38-.27.31-.19.41-.26h0l-.3.09c-.28.1-.33.11-.34.09s0,0,0,0a12.91,12.91,0,0,1,1.4-.62c.13-.05.15,0,.16,0s0,.05-.19.17l-.16.13H99c.06,0,.09,0,.1,0s0,0-.13.11a12.22,12.22,0,0,1-1.39.67l-.09,0Zm.07-.09h0s0,0,0,0h0a12.22,12.22,0,0,0,1.39-.67.43.43,0,0,0,.12-.09H99c-.06,0-.09,0-.1,0h0s0,0,.18-.16l.17-.13-.12,0a13.07,13.07,0,0,0-1.39.62h0l.3-.09c.28-.1.33-.11.34-.09s0,0,0,0-.26.17-.41.26a2.49,2.49,0,0,0-.36.25Zm2.38-.38h0a5.21,5.21,0,0,1,.77-.32h0s0,0-.09.06a2.32,2.32,0,0,1-.67.27Zm.69-.31c-.16.05-.58.23-.68.28a2.52,2.52,0,0,0,.65-.27h0Zm1.86-1.09h0s0,0,.16-.14l.68-.44c.43-.27.44-.26.45-.25s0,0,0,0a8.3,8.3,0,0,1-1.24.78Zm1.18-.78c-.24.14-1,.62-1.14.74A9.71,9.71,0,0,0,103.65,63.56Zm-1.6-.51h0s0,0,0,0l.17-.15a1.61,1.61,0,0,1,.3-.24c.63-.4.66-.36.67-.35s0,0-.09.12h0a8.71,8.71,0,0,1-1.09.67Zm1.16-.78a3.75,3.75,0,0,0-.63.36,1.59,1.59,0,0,0-.3.23l-.15.13a9.75,9.75,0,0,0,1-.63l.09-.09Zm2.2-1.71h0s0,0,.07-.08l.25-.24c.22-.2.44-.42.64-.58s.12-.08.13-.08-.51.55-.51.56a2.78,2.78,0,0,1-.57.42Zm1.05-1-.08.06c-.2.16-.42.37-.64.58l-.25.24,0,0a3.58,3.58,0,0,0,.52-.41h0a5.23,5.23,0,0,0,.5-.51ZM107,60h0s0,0,.12-.15l.6-.56c.39-.36.39-.36.4-.35s0,0-.06.08l0,0,.06,0a.38.38,0,0,0,.12-.1,2.64,2.64,0,0,1,.22-.26l.14-.16,0,0c-.19.17-.19.17-.2.16s0,0,0-.05.26-.29.43-.47l.41-.44a11,11,0,0,0,.69-.88c.18-.24.36-.5.62-.82a3.42,3.42,0,0,1,.34-.4l.26-.3s.37-.46.42-.42,0,0-.13.24-.27.34-.4.49a5.49,5.49,0,0,0-.38.47c-.18.23-.17.26-.17.29s0,.07-.13.26h0a4.21,4.21,0,0,1-.3.34c-.11.12-.22.24-.31.36l0,0c-.32.39-.65.79-1,1.14-.17.16-.43.41-.68.62s-.41.33-.43.33A4.1,4.1,0,0,1,107,60Zm.93-.88c-.27.24-.76.71-.89.84a6.53,6.53,0,0,0,.53-.48l0,0v0a12.45,12.45,0,0,0,1.08-.94c.34-.35.67-.75,1-1.14l0,0c.09-.12.2-.24.31-.36a4.17,4.17,0,0,0,.29-.34c.13-.18.13-.21.12-.24s0-.07.17-.31a5.52,5.52,0,0,1,.38-.47c.13-.15.26-.31.39-.49a1.07,1.07,0,0,0,.13-.21,2.47,2.47,0,0,0-.38.41c-.11.14-.19.22-.26.3a3.42,3.42,0,0,0-.34.4c-.26.32-.45.57-.62.82a11,11,0,0,1-.69.88c-.12.14-.26.29-.41.44s-.3.31-.4.44l.12-.11c.14-.13.14-.13.15-.12s0,0,0,.08l-.18.21a2.7,2.7,0,0,0-.22.26.39.39,0,0,1-.13.11l-.17.12,0,0Zm-.46.12h0s0,0,.08-.09h0c.24-.23.57-.57.84-.85.41-.44.45-.47.47-.45a0,0,0,0,1,0,0,7.07,7.07,0,0,1-.7.74s-.65.64-.68.64Zm1.35-1.37c-.06.05-.24.24-.42.43l-.46.48c.36-.35.8-.8.88-.91Zm2.19-2h0s0,0,.07-.13.33-.44.51-.66.33-.34.34-.34,0,0,0,.07a6,6,0,0,1-.89,1.06Zm.9-1.1a7.26,7.26,0,0,0-.82,1l-.05.08a7.12,7.12,0,0,0,.86-1h0l0,0Zm1.71-3.88h0s0,0,0-.05a7.37,7.37,0,0,1,.6-1.13h0s0,0,0,.09h0a4.7,4.7,0,0,1-.59,1.09Zm.58-1.13a9.27,9.27,0,0,0-.56,1.09h0a5.91,5.91,0,0,0,.55-1.06h0v0Zm.24,1h0s0,0,0,0a5.23,5.23,0,0,1,.31-.93,1.76,1.76,0,0,0,.06-.2,1.24,1.24,0,0,1,.09-.26c.2-.44.26-.49.3-.48s0,.09,0,.3l.09-.2c.1-.22.1-.22.11-.22s0,0,0,0a6.63,6.63,0,0,1-.49,1.17,3.84,3.84,0,0,1-.48.81Zm.73-1.87s-.08,0-.27.46a1.22,1.22,0,0,0-.09.25,1.78,1.78,0,0,1-.06.2,5.4,5.4,0,0,0-.31.92h0a8.68,8.68,0,0,0,.92-1.88l-.05.12c-.11.26-.12.26-.13.26s0,0,0,0c0-.27,0-.31,0-.32Z"/><path class="cls-4" d="M114.39,48.14c.33-.83-.37.38-.51.76S114.06,49,114.39,48.14Z"/><path class="cls-4" d="M113.86,49.07h0s0,0,0-.18a4.37,4.37,0,0,1,.6-1h0s0,0-.08.29h0C114.18,48.7,113.94,49.07,113.86,49.07Zm.6-1.2a5,5,0,0,0-.58,1c0,.13,0,.15,0,.15h0a2.29,2.29,0,0,0,.51-.91h0a1,1,0,0,0,.1-.27Z"/><path class="cls-4" d="M112.27,51.41c-.12.12-.52.89-.76,1.27-.7,1-1.43,2-2.32,3.07-.44.53-.9.92-1.21,1.3s0,.09.26-.16a38,38,0,0,0,2.44-3c.17-.2-.44.67-.3.51.3-.32.45-.46.63-.64s.62-.94.82-1.24-.42.76-.59,1,.11,0,.42-.44a8.47,8.47,0,0,0,.54-1.07c.3-.51.62-1,.9-1.55a6.77,6.77,0,0,0,.5-1.09s-.59,1.18-.85,1.58c-.12.2,0,0-.19.23s-.51.89-.76,1.28C111.35,53.21,112.47,51.19,112.27,51.41Z"/><path class="cls-4" d="M107.91,57.18h0s0,0,.07-.13.31-.34.49-.52.47-.48.72-.78c.75-.88,1.38-1.76,2-2.61l.33-.46c.12-.17.27-.44.4-.68a5.38,5.38,0,0,1,.36-.59s0,0,0,0,0,.11-.34.74l-.24.48.07-.1c.14-.23.3-.49.44-.74l.32-.54c.08-.13.1-.14.12-.14s0,0,.08-.09.41-.73.6-1.11.24-.48.27-.47h0a6.75,6.75,0,0,1-.5,1.1c-.21.41-.44.8-.67,1.17l-.23.39a2.73,2.73,0,0,0-.23.49,2.11,2.11,0,0,1-.31.58s-.42.59-.48.55,0,0,0-.13l.12-.21c.15-.25.41-.68.49-.84h0l-.25.39c-.23.36-.49.77-.57.86l-.11.1-.53.54s0,0,0,0,0,0,.17-.29l.13-.2-.59.76a22.25,22.25,0,0,1-1.81,2.17A1.22,1.22,0,0,1,107.91,57.18Zm1.92-2.2c-.2.26-.41.52-.63.78s-.5.55-.72.78-.35.35-.49.52l-.07.1a2.17,2.17,0,0,0,.31-.27,19.29,19.29,0,0,0,1.6-1.9Zm2.45-3.56h0a5.55,5.55,0,0,0-.36.59c-.13.24-.29.5-.4.68l-.33.46c-.32.44-.64.89-1,1.34l.46-.59s0,0,0,0,0,0-.18.31l-.13.2.49-.5.1-.1c.08-.08.35-.51.57-.85l.25-.39c.05-.07.06-.07.07-.07s0,0-.51.92l-.12.21a.42.42,0,0,0,0,.09,3.13,3.13,0,0,0,.44-.54,2.09,2.09,0,0,0,.31-.57,2.76,2.76,0,0,1,.23-.5l.23-.39c.22-.37.46-.76.66-1.17a9.6,9.6,0,0,0,.49-1l-.22.42c-.19.37-.45.88-.61,1.11s-.07.1-.09.1,0,0-.1.13l-.32.54c-.15.25-.3.51-.44.74s-.11.16-.12.15,0,0,.25-.55c.13-.27.31-.61.33-.7Z"/><path class="cls-4" d="M114,47.56l0,.08a4.11,4.11,0,0,1-.21.56c-.23.52-.33.57-.57,1-.13.26,0,0-.07.3s-.39.79-.37.81a14.73,14.73,0,0,0,.82-1.57c.23-.45.1.11.36-.49s-.12.05,0-.32a1,1,0,0,1,.11-.31.14.14,0,0,0,0-.07Z"/><path class="cls-4" d="M112.77,50.35h0s0,0,.12-.31.18-.36.24-.51,0-.13,0-.14,0,0,0-.16a4.86,4.86,0,0,1,.25-.44,4,4,0,0,0,.32-.59l0-.07a3.55,3.55,0,0,0,.18-.49.36.36,0,0,1,0-.08h.08a.15.15,0,0,1,0,.08.63.63,0,0,0-.08.23l0,.08c0,.09,0,.11,0,.11l0,0s0,0,.06,0,0,0-.08.27-.16.32-.2.31,0,0-.15.19l-.26.54a6,6,0,0,1-.56,1ZM114,47.57l0,.07a3.57,3.57,0,0,1-.18.5l0,.07a4,4,0,0,1-.32.6,4.82,4.82,0,0,0-.25.44c-.06.12-.05.13,0,.13s0,0,0,.16-.16.35-.24.51-.11.23-.13.27a11,11,0,0,0,.53-1l.26-.54c.11-.21.14-.21.18-.2s0,0,.18-.29A1.08,1.08,0,0,0,114,48l0,0s0,0-.07,0,0,0,0-.14l0-.08a.65.65,0,0,1,.09-.23.14.14,0,0,0,0-.05h0Z"/><path class="cls-4" d="M116.33,47.76c-.22.5-.45,1-.7,1.5a32.44,32.44,0,0,1-3,4.78s.2-.17.13,0a17.86,17.86,0,0,1-1.12,1.5c-.38.53-.8,1-1.17,1.47s-.31.51-.74,1c-.24.28-.11.2-.38.51-.54.62.08-.26-.13-.13s-1.11,1.19-1.56,1.54c-.26.21.57-.55.65-.68s-.63.48-1.22,1c-.37.32.72-.54.53-.34s-1.08.91-1.44,1.2c-.16.15.74-.54.52-.36s-.07.15-.44.45-.43.24-.78.53l-.06,0a2.1,2.1,0,0,0,.44-.24c.36-.25.69-.51,1-.77a.42.42,0,0,1,.11-.16c.11-.12.22-.15.14,0l1.21-1c1-.86,1.71-1.48,2.56-2.3.28-.29.55-.55.85-.9.17-.19.32-.37.47-.57a32,32,0,0,0,2.1-3l.39-.63A17.68,17.68,0,0,0,116,49.44c.22-.58.33-1,.59-1.69Zm-3.44,6.37c-.25.46-1.54,2-1.17,1.47s1.44-1.92,1.17-1.47Zm1-1.59c-.29.47-.63.84-.43.47.08-.15,0-.08.13-.29C114,52.08,114.26,51.91,113.9,52.54Zm1-1.59c-.11.19,0,0,0,0s.27-.65.52-1.14-.16.53-.49,1.16Z"/><path class="cls-4" d="M105.41,61.76v0l.06,0a2.61,2.61,0,0,1,.39-.27,2.59,2.59,0,0,0,.39-.26c.19-.15.2-.19.22-.22a.39.39,0,0,1,.09-.12l0,0c-.37.28-.37.27-.38.26s0,0,0,0l.25-.21c.4-.33.94-.77,1.17-1l-.35.25c-.23.17-.23.17-.24.16s0,0,.08-.09l.5-.42c.61-.51.73-.6.76-.58s0,0,0,.05a5.91,5.91,0,0,1-.47.49l-.11.11c.27-.23.68-.65,1-1s.41-.43.48-.48,0,0,.06,0,0,.09-.08.23l-.06.13a1.61,1.61,0,0,0,.21-.22,1.33,1.33,0,0,0,.2-.27,1.27,1.27,0,0,1,.17-.24,3.3,3.3,0,0,0,.36-.49,4.62,4.62,0,0,1,.38-.53l.25-.31c.31-.37.62-.75.92-1.16s1-1.29,1.12-1.5v0l-.06,0s-.07,0-.08,0h0a32.33,32.33,0,0,0,3-4.78c.25-.5.48-1,.7-1.5h.27v0c-.14.37-.23.64-.32.91s-.16.49-.27.78a17.89,17.89,0,0,1-1.29,2.65l-.21.34-.18.29a31.56,31.56,0,0,1-2.11,3c-.15.19-.3.37-.47.57s-.45.5-.68.73l-.16.17c-.83.82-1.52,1.41-2.56,2.31l-.4.34-.82.69-.07.06.05-.07s0,0,0,0a.34.34,0,0,0-.15.1.43.43,0,0,0-.1.16h0c-.37.3-.69.54-1,.77a1.53,1.53,0,0,1-.33.19Zm1.31-1.08h0s0,0,0,0-.19.19-.21.22,0,.08-.23.23a2.62,2.62,0,0,1-.39.27,2.58,2.58,0,0,0-.37.24h0a1.51,1.51,0,0,0,.33-.18c.33-.23.65-.47,1-.77a.47.47,0,0,1,.11-.16c.06-.07.15-.13.18-.1a0,0,0,0,1,0,0l.77-.65.4-.34c1-.89,1.73-1.49,2.56-2.3L111,57c.23-.23.44-.45.68-.73s.33-.38.47-.57a31.92,31.92,0,0,0,2.1-3l.18-.29.21-.34A17.86,17.86,0,0,0,116,49.43c.11-.28.19-.52.27-.78s.18-.54.31-.9h-.22c-.22.51-.45,1-.7,1.5a32.19,32.19,0,0,1-3,4.75l0,0s.07-.05.09,0,0,0,0,.07c-.1.21-.88,1.2-1.12,1.5s-.61.79-.92,1.16l-.25.31a4.6,4.6,0,0,0-.38.53,3.32,3.32,0,0,1-.36.49,1.25,1.25,0,0,0-.17.24,1.37,1.37,0,0,1-.2.27c-.21.24-.23.23-.24.23s0,0,.06-.16a.67.67,0,0,0,.08-.2h0c-.06,0-.24.23-.47.47a14.41,14.41,0,0,1-1.09,1.07s-.06,0-.06,0,0,0,.22-.24a6.11,6.11,0,0,0,.47-.49v0c-.08,0-.4.31-.72.58l-.37.31h0c.4-.3.41-.3.42-.28s0,0,0,0c-.21.21-.77.67-1.18,1l-.08.06.16-.12a1.26,1.26,0,0,1,.23-.14Zm4.95-5h0s0,0,.07-.12l.56-.73c.61-.81.65-.84.67-.83s0,0,0,.1A11.3,11.3,0,0,1,111.66,55.72Zm1.25-1.63c-.1.11-.37.47-.61.79l-.56.73,0,0a13.68,13.68,0,0,0,1.19-1.53h0Zm.52-.92h0s0,0,.05-.16a.36.36,0,0,0,0-.11.49.49,0,0,1,.09-.18c0-.06.38-.58.47-.58h0s0,0-.17.41h0a2.24,2.24,0,0,1-.49.62Zm.65-1a2.32,2.32,0,0,0-.45.58.48.48,0,0,0-.08.17.37.37,0,0,1,0,.12.5.5,0,0,0-.06.13,2.74,2.74,0,0,0,.46-.61c.19-.33.18-.37.18-.38Zm.78-1.12h0s0,0,0-.1h0s.27-.66.52-1.14c.1-.2.11-.19.12-.18s0,0-.19.5c-.14.31-.29.63-.4.85h0C114.88,51,114.86,51,114.85,51Zm0-.11V51l0-.06c.23-.45.51-1.1.58-1.28l-.07.13c-.24.47-.51,1.11-.52,1.14Z"/><path class="cls-4" d="M115.63,47.76a16.07,16.07,0,0,0-.7,1.45c-.05.16,0,.21.22-.23.12-.24.11-.37.22-.58s.16-.24.31-.53l0-.1Z"/><path class="cls-4" d="M114.92,49.34h0s0-.08,0-.13a6.14,6.14,0,0,1,.39-.84l.31-.61h.12v0l0,.1a2.38,2.38,0,0,1-.17.29,2.35,2.35,0,0,0-.14.24,1.36,1.36,0,0,0-.1.27,1.67,1.67,0,0,1-.12.3C115,49.22,115,49.34,114.92,49.34Zm.71-1.57-.31.61a6,6,0,0,0-.39.84c0,.07,0,.1,0,.1s0,0,.22-.35a1.65,1.65,0,0,0,.11-.3,1.38,1.38,0,0,1,.11-.28,2.37,2.37,0,0,1,.15-.24,2.35,2.35,0,0,0,.16-.29l0-.09h-.07Z"/><path class="cls-2" d="M115.92,47.77a1.08,1.08,0,0,0-.07.17s.07,0,0,.33a4,4,0,0,0,.25-.49Z"/><path class="cls-3" d="M115.81,48.3h0s0,0,0,0c.1-.28.07-.3,0-.31h0s0,0,.07-.18h.17v0L116,48C115.85,48.26,115.82,48.3,115.81,48.3Zm.05-.36s.05.06,0,.25l.12-.24.08-.16h-.12l-.07.16Z"/><path class="cls-2" d="M116.09,47.77A2.35,2.35,0,0,1,116,48l.11-.26Z"/><path class="cls-3" d="M116,48h0a2.36,2.36,0,0,0,.08-.25h.06l0,0Zm.08-.24v0h0Z"/><path class="cls-4" d="M114.35,20.09c.13.27.19.27.31.52a7.8,7.8,0,0,1,.81,2.29c-.06-.11-.51-1.19-.52-1.09s-.06-.07,0,0c.08.24.22.68.38,1.16h.33c-.24-.65-.46-1.27-.45-1.27A6.77,6.77,0,0,1,115.7,23H116l-.09-.26c-.13-.36-.28-.86-.1-.47.11.23.22.48.32.74l.16,0,.69.07c-.84-1.95-1.81-3.86-1.89-4.13s-.26-.07-.1.12-.26,0-.31,0,.18.38.15.41-.24-.26-.17-.08a19.61,19.61,0,0,1,.88,1.88c-.08-.09-.29-.49-.48-.83s-.43-.79-.51-.92-.11-.09-.08.08.06.31-.11.11-.11-.09-.06.06A1.06,1.06,0,0,0,114.35,20.09Zm1,.76c-.35-.76-.12-.54.09-.31.05.06-.27-.56-.19-.45a7,7,0,0,1,.85,2,5.3,5.3,0,0,1-.49-.84,4.22,4.22,0,0,1-.25-.41Zm-.09.84c.21.37.54,1.32.41,1.11s-.61-1.49-.41-1.11Z"/><path class="cls-4" d="M117,23.11h0l-.69-.07h-.17c-.11-.28-.22-.53-.32-.74l-.06-.12a4.45,4.45,0,0,0,.18.58L116,23v0h-.28a8.81,8.81,0,0,0-.5-1.26c0,.09.14.42.28.8l.16.45v0h-.36l-.28-.87-.09-.29s0,0,0,0,0,0,0,0h0s.08.09.36.73c.08.18.15.33.17.37l0,0a12.79,12.79,0,0,0-.85-2.29,1.59,1.59,0,0,0-.15-.26,1.87,1.87,0,0,1-.16-.26h0l0-.06a.88.88,0,0,1-.07-.19l0-.06c0-.09,0-.11,0-.12s0,0,.12.11.1.1.1.09,0-.11,0-.17v0c0-.13,0-.16,0-.17s0,0,.09.08.21.37.36.64l.16.29.17.3a4.35,4.35,0,0,0,.31.52c0-.12-.37-.8-.6-1.26-.15-.3-.27-.54-.3-.6s0-.07,0-.08.05,0,.13.09l.05,0a1,1,0,0,0-.08-.18c-.07-.14-.09-.2-.07-.22s.09,0,.19,0,.15,0,.16,0,0,0,0-.06a.29.29,0,0,1-.05-.29.05.05,0,0,1,.05,0s.09.07.12.19.22.51.48,1.05c.39.82.92,1.93,1.41,3.07Zm-.86-.12h.16l.67.07c-.49-1.14-1-2.24-1.4-3.05-.26-.55-.45-.95-.49-1.06s-.09-.17-.1-.17h0l0,0a.27.27,0,0,0,.05.26s0,.07,0,.08-.08,0-.18,0-.15,0-.16,0a.7.7,0,0,0,.08.19c.07.14.09.2.07.22h0l-.07-.06-.1-.08v0c0,.06.15.31.29.6a5.84,5.84,0,0,1,.6,1.3s0,0,0,0a4.1,4.1,0,0,1-.31-.53l-.17-.3-.16-.29c-.14-.26-.29-.54-.36-.63s-.06-.07-.06-.07h0s0,0,0,.15v0c0,.12,0,.18,0,.2s0,0-.13-.1l-.09-.1,0,.09,0,.06a.86.86,0,0,0,.07.19l0,.06h0a1.85,1.85,0,0,0,.16.26,1.61,1.61,0,0,1,.15.26c.2.44.43,1,.61,1.5s.27.8.23.83,0,0,0,0-.09-.2-.17-.37-.28-.64-.33-.71h0l.09.29c.08.24.17.54.28.86h.31l-.16-.43c-.3-.83-.3-.83-.28-.84h0a5.18,5.18,0,0,1,.53,1.28h.23l-.09-.24s-.22-.61-.17-.63,0,0,.1.14.2.47.31.75Zm-.35-.16s0,0,0,0a7.62,7.62,0,0,1-.46-1.19h0s0,0,.05.07a4.39,4.39,0,0,1,.44,1.16Zm-.47-1.18a9.28,9.28,0,0,0,.45,1.14h0a5.91,5.91,0,0,0-.44-1.11h0Zm.88.46h0a5.43,5.43,0,0,1-.5-.84l-.11-.18a1.25,1.25,0,0,1-.14-.24c-.2-.44-.19-.52-.16-.54s.1,0,.24.18l-.09-.2c-.11-.22-.1-.22-.09-.23s0,0,0,0a6.86,6.86,0,0,1,.57,1.14,3.94,3.94,0,0,1,.3.9h0Zm-.91-1.78h0s0,.07.17.51h0a1.21,1.21,0,0,0,.13.23l.11.18a5.68,5.68,0,0,0,.49.83h0a8.81,8.81,0,0,0-.82-1.93l.06.12c.12.26.12.26.11.27s0,0,0,0c-.16-.17-.21-.21-.23-.21Z"/><path class="cls-2" d="M115.47,23c-.07-.19-.12-.32-.14-.37-.11-.41-.26-.1-.11.11s-.27,0-.33,0,0,.15.09.27Z"/><path class="cls-3" d="M115,23l0-.06c-.06-.15-.09-.21-.07-.24s.09,0,.19,0,.15.05.16,0,0,0,0-.06a.31.31,0,0,1,0-.3.05.05,0,0,1,.05,0s.09.08.12.21.06.17.13.37v0H115Zm-.06-.28h0a.79.79,0,0,0,.07.21l0,0h.46c-.08-.2-.12-.31-.13-.36s-.09-.19-.1-.2,0,0,0,0a.29.29,0,0,0,0,.28s0,.07,0,.09-.08,0-.19,0l-.15,0Z"/><path class="cls-4" d="M116.29,47.76a2.88,2.88,0,0,0,0,.43s.21-.31.12,0a11.83,11.83,0,0,1-.49,1.49c-.08.19,0,0,0,0s.12-.64.16-.95-.36.76-.33.53a12.55,12.55,0,0,1,.54-1.45l0-.08h-.18l-.2.6c-.34,1.09-.77,2.12-.9,2.64,0,.19.32-.77.48-1.14s.08,0,0,.33a8.05,8.05,0,0,1-.42,1.17c-.38.91-1.23,2.12-1.33,2.44-.06.16,0,.21.24-.21.14-.24.13-.36.26-.57s.18-.22.35-.51c.26-.49.54-1.16.8-1.68s-.26.72-.31.88a19.15,19.15,0,0,0,1.11-2.24,7.73,7.73,0,0,1-.34.88,15.45,15.45,0,0,1-.89,2c-.11.19.35-.85.23-.59s-.44.83-.43.83.07,0-.05.33.36-.63.33-.53a1.8,1.8,0,0,1-.11.31c.49-1,.93-1.95,1.37-3,.24-.55.52-1.33.75-2A6.83,6.83,0,0,1,116.29,47.76Z"/><path class="cls-4" d="M113.66,54h0s0-.08,0-.13a5.68,5.68,0,0,1,.45-.82,13.57,13.57,0,0,0,.88-1.63,5.68,5.68,0,0,0,.33-.88l.09-.29a3.46,3.46,0,0,0,.13-.51,1.2,1.2,0,0,0-.09.18c-.07.15-.17.41-.26.63-.22.55-.22.55-.24.54s0,0,0,0c.07-.26.21-.65.37-1.1s.36-1,.53-1.54l.16-.47,0-.14h.21v0l0,.08a12.53,12.53,0,0,0-.54,1.45h0a3.1,3.1,0,0,0,.14-.28c.13-.27.15-.31.18-.31s0,0,0,0-.06.31-.1.49a2.37,2.37,0,0,0-.08.45h0s0,0,0,.06l0,0a11.88,11.88,0,0,0,.49-1.48c0-.13,0-.15,0-.16l-.05.06s-.06.07-.08.06,0-.06,0-.24,0-.15,0-.2h0c.23,0,.46,0,.69-.06h0v0c-.24.68-.52,1.46-.76,2-.45,1.12-.9,2.11-1.37,3h0a2.28,2.28,0,0,0,.09-.25l-.1.18c-.19.34-.19.34-.21.33s0,0,0,0c.12-.28.08-.3.06-.31s0,0,.13-.28.22-.41.29-.57l0,0h0s0,0,0,0h0l0,.05-.2.47a16,16,0,0,0,.84-1.92l.11-.28.2-.5-.29.63a7.94,7.94,0,0,1-.78,1.56h0s0,0,0-.05.09-.23.16-.42l.18-.47h0l-.3.65c-.16.36-.33.73-.49,1a2.25,2.25,0,0,1-.19.28,2.18,2.18,0,0,0-.16.23,1.31,1.31,0,0,0-.12.27,1.6,1.6,0,0,1-.13.3C113.83,53.77,113.72,54,113.66,54Zm1.88-4.29h0s0,0-.12.54l-.09.29a5.69,5.69,0,0,1-.33.89,13.67,13.67,0,0,1-.88,1.63,5.34,5.34,0,0,0-.45.82c0,.07,0,.1,0,.1h0s.08-.06.24-.33a1.59,1.59,0,0,0,.13-.3,1.32,1.32,0,0,1,.12-.27,2.2,2.2,0,0,1,.16-.23,2.2,2.2,0,0,0,.19-.28c.16-.3.33-.67.49-1s.21-.45.3-.65.06-.11.07-.1,0,0-.2.58l-.16.41a.17.17,0,0,0,0,0c.08-.08.48-1,.75-1.54.15-.32.27-.59.34-.72s0,0,0,0,0,0-.23.63l-.11.28a15.58,15.58,0,0,1-.89,2s0,0,0,0,0,0,.1-.29l-.13.24-.13.25s.05.07,0,.27l.14-.24c.14-.24.14-.24.15-.24s0,0,0,0l0,.11c.43-.86.85-1.78,1.27-2.83.24-.54.51-1.31.75-2-.22,0-.44,0-.66.05a1.62,1.62,0,0,1,0,.19,1.31,1.31,0,0,0,0,.22l.06-.06s.06-.07.08-.06,0,0,0,.18a11.92,11.92,0,0,1-.49,1.49c0,.08,0,.09-.06.08s0,0,0-.06a.09.09,0,0,1,0,0h0s0-.15.07-.47.08-.36.1-.49h0s-.09.18-.14.28c-.13.27-.15.31-.18.31s0,0,0,0a12.43,12.43,0,0,1,.54-1.46l0-.06h-.16l0,.12-.16.47c-.17.55-.36,1.08-.53,1.54s-.28.77-.35,1l.18-.45c.09-.22.19-.48.26-.63S115.53,49.66,115.55,49.66Z"/><path class="cls-4" d="M117.29,47.66c0,.06-.05.08-.06.08s0,0,0-.07l-.1,0c-.06.16-.11.33-.16.49A27.27,27.27,0,0,1,114.4,54,30.29,30.29,0,0,1,111,58.52s.21-.15.14,0a17.06,17.06,0,0,1-1.24,1.41c-.42.49-.88.94-1.29,1.36s-.35.49-.82,1c-.26.26-.12.2-.42.48-.6.57.1-.26-.13-.15s-1.22,1.09-1.7,1.39c-.28.18.62-.5.7-.62s-.68.41-1.32.84c-.4.28.77-.47.56-.29s-1.17.8-1.55,1.06c-.17.13.8-.47.55-.3s-.08.15-.48.41-.46.2-.83.45l-.06,0a2,2,0,0,0,.47-.19c.38-.21.74-.43,1.1-.66a.4.4,0,0,1,.12-.16c.12-.11.24-.12.15,0l1.31-.91c1.08-.76,1.85-1.31,2.77-2.05.31-.26.59-.49.92-.82s.35-.34.52-.53a29.44,29.44,0,0,0,2.34-2.86l.44-.6a16.68,16.68,0,0,0,1.48-2.57c.3-.66.42-1.09.87-2.05a18.73,18.73,0,0,1,.84-1.78c-.07.28-.57,1.4-.43,1.16a10.94,10.94,0,0,0,.51-1.12,23,23,0,0,0,1-2.78Zm-6,11c-.29.44-1.7,1.85-1.29,1.37s1.59-1.8,1.29-1.37Zm1.12-1.51c-.32.45-.69.78-.47.43.1-.15,0-.08.15-.28.47-.61.71-.76.31-.16Zm1.12-1.51c-.12.18,0,0,0,0s.31-.64.6-1.11-.2.53-.57,1.14Z"/><path class="cls-4" d="M103.05,65.6l.1-.07.05,0a2.46,2.46,0,0,1,.42-.22A2.46,2.46,0,0,0,104,65c.2-.13.22-.16.24-.2a.38.38,0,0,1,.11-.12l0,0c-.4.24-.4.24-.41.22s0,0,0,0l.27-.18c.44-.29,1-.68,1.27-.87l-.38.22c-.24.15-.24.15-.26.14s0,0,.09-.08l.54-.37c.63-.43.79-.53.81-.5s0,0,0,.05a5.49,5.49,0,0,1-.52.45l-.14.12c.3-.2.75-.6,1.12-.92s.45-.39.52-.43,0,0,.06,0,0,.09-.09.22l-.07.13a1.38,1.38,0,0,0,.23-.2,1.24,1.24,0,0,0,.22-.25,1.18,1.18,0,0,1,.19-.23,3.06,3.06,0,0,0,.4-.46,4.31,4.31,0,0,1,.42-.5l.28-.28c.34-.34.68-.7,1-1.08a18.09,18.09,0,0,0,1.23-1.4l0,0-.06,0s-.07,0-.09,0h0A30.09,30.09,0,0,0,114.39,54,27.24,27.24,0,0,0,117,48.17l.16-.49h.13v.07l0-.06h0l.2,0h0v0a23,23,0,0,1-1,2.78l-.09.22a7.82,7.82,0,0,1-.42.9s0,0,0,0,0,0,.15-.42.27-.64.3-.78h0c-.06.11-.21.46-.36.79s-.34.76-.46,1c-.26.56-.41.94-.55,1.28s-.2.49-.32.77a16.89,16.89,0,0,1-1.48,2.57l-.24.33-.2.27a29.68,29.68,0,0,1-2.34,2.86c-.16.18-.33.34-.52.53s-.5.46-.74.66l-.18.15c-.9.73-1.65,1.27-2.77,2.05l-.43.3-.88.61-.07,0,.05-.06s0,0,0,0a.32.32,0,0,0-.16.09.4.4,0,0,0-.12.15h0c-.4.26-.75.47-1.1.66a1.46,1.46,0,0,1-.35.15l-.12,0Zm1.52-1h0s0,0,0,0-.21.17-.23.2,0,.07-.25.21a2.48,2.48,0,0,1-.42.22,2.43,2.43,0,0,0-.4.21h0a1.44,1.44,0,0,0,.35-.15c.35-.19.69-.4,1.09-.66a.44.44,0,0,1,.12-.16c.08-.07.16-.11.19-.08a0,0,0,0,1,0,0l.83-.58.43-.3c1.12-.79,1.87-1.32,2.77-2.05l.18-.15c.24-.21.48-.41.74-.66s.36-.35.52-.53a30,30,0,0,0,2.34-2.86l.2-.27.24-.33a16.87,16.87,0,0,0,1.48-2.57c.13-.28.22-.52.32-.77s.29-.73.55-1.29c.12-.24.3-.65.46-1,.35-.78.38-.85.41-.84s0,0,0,.08-.18.5-.3.79l-.14.34a9.05,9.05,0,0,0,.4-.87l.09-.22a22.88,22.88,0,0,0,.94-2.76l-.18,0c0,.08-.06.09-.08.08h0s0,0,0-.06h-.07l-.16.48A27.26,27.26,0,0,1,114.41,54a30.05,30.05,0,0,1-3.35,4.53l0,0s.08,0,.09,0,0,0,0,.07a17.76,17.76,0,0,1-1.24,1.41c-.33.39-.68.74-1,1.08l-.28.28a4.29,4.29,0,0,0-.42.5,3.08,3.08,0,0,1-.4.46,1.16,1.16,0,0,0-.19.22,1.27,1.27,0,0,1-.23.26c-.23.22-.24.21-.26.2s0-.05.07-.16.11-.18.09-.2h0c-.06,0-.26.21-.51.43a13.1,13.1,0,0,1-1.18,1c-.05,0-.06,0-.07,0s0,0,.24-.22a5.69,5.69,0,0,0,.51-.44v0a8.65,8.65,0,0,0-.78.5l-.43.29,0,0c.41-.24.43-.25.45-.24s0,0,0,0c-.23.19-.84.59-1.28.88l-.11.07.2-.12Zm5.38-4.49h0s0,0,.07-.11l.62-.68c.68-.76.72-.79.73-.77s0,0,0,.1A11.33,11.33,0,0,1,109.95,60.12Zm1.38-1.52c-.1.1-.41.44-.68.73L110,60l0,.05a12.75,12.75,0,0,0,1.32-1.44h0Zm.58-.88h0s0,0,.06-.16a.34.34,0,0,0,.05-.11.47.47,0,0,1,.1-.17c0-.06.46-.59.53-.54s0,0-.2.4h0c-.2.28-.47.58-.55.58Zm.72-1a2.06,2.06,0,0,0-.49.54.45.45,0,0,0-.1.16.36.36,0,0,1-.06.11.43.43,0,0,0-.07.13,2.39,2.39,0,0,0,.51-.57c.23-.33.2-.37.2-.37Zm.87-1.05h0s0,0,0-.1h0s.32-.65.6-1.11c.11-.19.12-.18.13-.18s0,0-.22.49c-.16.3-.33.61-.46.83h0c0,.06-.06.08-.07.08Zm0-.11v0l0,.06,0-.06a13.73,13.73,0,0,0,.67-1.26l-.08.13c-.28.45-.59,1.08-.6,1.11Z"/><path class="cls-4" d="M114.2,47.77l.08-.16-.12,0c-.21.58-.4,1.07-.48,1.39S114,48.16,114.2,47.77Z"/><path class="cls-4" d="M113.68,49h0s0,0,0,0c.07-.28.23-.69.4-1.17l.08-.23h.14l-.08.16c-.07.16-.18.43-.28.66C113.72,49,113.7,49,113.68,49Zm.49-1.41-.08.21c-.16.45-.31.84-.38,1.11l.2-.49c.1-.24.21-.51.28-.66h0l.07-.15h-.09Z"/><path class="cls-4" d="M113.74,49.77a12.6,12.6,0,0,0,1.07-2.08l-.13,0c-.07.15,0,0,0,0l-.32,0a4.46,4.46,0,0,1-.14.52,8,8,0,0,1-.45,1.24c-.41,1-1.34,2.2-1.44,2.54-.07.17,0,.24.26-.21.15-.24.14-.39.28-.6s.19-.23.38-.52c.29-.51.59-1.22.86-1.77S113.8,49.59,113.74,49.77Z"/><path class="cls-4" d="M112.29,52.07h0s0-.1,0-.14a5.5,5.5,0,0,1,.49-.85,13.25,13.25,0,0,0,1-1.69,5.68,5.68,0,0,0,.35-.94l.1-.31a4.48,4.48,0,0,0,.14-.52h0l.32,0h0a.09.09,0,0,1,0,0h0l0,0h0l.13,0h0l-.24.5a9,9,0,0,1-.84,1.63h0s0,0,0-.06h0c0-.06.09-.24.17-.44s.16-.4.2-.52v0c-.11.21-.21.44-.33.69s-.36.76-.53,1.08a2.15,2.15,0,0,1-.21.29,2.09,2.09,0,0,0-.17.24,1.28,1.28,0,0,0-.13.28,1.59,1.59,0,0,1-.15.32C112.47,51.88,112.35,52.07,112.29,52.07Zm2-4.44a4.81,4.81,0,0,1-.14.51l-.1.31a5.69,5.69,0,0,1-.35.94,13.23,13.23,0,0,1-1,1.7,5.55,5.55,0,0,0-.48.85c0,.08,0,.11,0,.12s.05,0,.26-.33a1.56,1.56,0,0,0,.14-.31,1.3,1.3,0,0,1,.13-.29,2.1,2.1,0,0,1,.18-.24,2.11,2.11,0,0,0,.2-.28c.17-.31.36-.7.53-1.08l.33-.69c.06-.12.06-.11.07-.11s0,0-.22.62c-.08.19-.15.38-.17.44a.16.16,0,0,0,0,0,17.72,17.72,0,0,0,.81-1.62l.23-.49h-.11c0,.07,0,.08-.05.08s0,0,0-.06v0l-.29,0Z"/><path class="cls-4" d="M113.59,50.86c.53-1,1-2,1.46-3.15l-.2,0-.28.67a15.24,15.24,0,0,1-1,2.11c-.12.2.37-.9.24-.62s-.48.86-.46.87.07.05-.06.36.39-.65.35-.55A1.81,1.81,0,0,1,113.59,50.86Z"/><path class="cls-4" d="M113.34,51.11h0s0,0,0,0c.13-.3.09-.32.06-.34s0,0,.14-.29.24-.43.32-.6l0,0h0s0,0,0,0h0l0,.06-.22.52a15.73,15.73,0,0,0,.92-2l.12-.3.15-.37h0l.2,0h0c-.49,1.18-1,2.2-1.46,3.15h0a2.17,2.17,0,0,0,.1-.28l-.11.19C113.38,51.07,113.36,51.11,113.34,51.11Zm.07-.4s.06.08,0,.31l.16-.27c.15-.26.15-.26.16-.24s0,0,0,0a1,1,0,0,1,0,.14c.46-.89.91-1.86,1.36-2.95l-.18,0-.15.36-.12.3a15.37,15.37,0,0,1-1,2.11s0,0,0,0,0,0,.12-.33l-.16.28Z"/><path class="cls-4" d="M115.28,47.73a26.2,26.2,0,0,1-2.2,4.43,28.84,28.84,0,0,1-3.65,4.65s.23-.14.15,0a15.87,15.87,0,0,1-1.34,1.42c-.46.5-1,.94-1.4,1.36s-.38.5-.89,1c-.29.26-.13.2-.45.48-.65.57.1-.27-.14-.18s-1.32,1.07-1.84,1.35c-.3.17.67-.48.77-.61s-.73.38-1.44.78c-.43.27.84-.43.61-.26s-1.27.76-1.68,1c-.19.13.87-.43.6-.28s-.09.15-.52.4-.5.17-.91.41l-.07,0a2,2,0,0,0,.51-.16c.42-.19.81-.4,1.19-.62a.38.38,0,0,1,.13-.16c.13-.11.26-.11.16,0l1.42-.86c1.17-.72,2-1.24,3-2,.33-.26.65-.48,1-.8.2-.17.38-.33.56-.52a28.17,28.17,0,0,0,2.53-2.9l.47-.61a16.13,16.13,0,0,0,1.6-2.66c.33-.7.46-1.15.94-2.16a18.25,18.25,0,0,1,.91-1.86c-.07.3-.62,1.48-.47,1.22a10.8,10.8,0,0,0,.55-1.18c.1-.24.2-.47.29-.71ZM109.75,57c-.31.46-1.84,1.86-1.4,1.37S110.08,56.54,109.75,57ZM111,55.43c-.35.46-.75.79-.5.43.1-.15,0-.09.16-.29C111.14,54.94,111.41,54.81,111,55.43Zm1.22-1.55c-.13.19,0,0,0,0s.34-.67.65-1.16-.21.56-.61,1.19Z"/><path class="cls-4" d="M100.8,63.75l.16-.09a2.39,2.39,0,0,1,.45-.2,2.37,2.37,0,0,0,.45-.2c.22-.13.24-.16.26-.2a.4.4,0,0,1,.14-.13l-.06,0c-.43.22-.44.22-.45.2s0,0,0,0l.3-.17c.48-.27,1.14-.65,1.39-.83l-.43.21c-.27.14-.27.14-.28.12s0,0,.1-.08l.59-.35c.67-.4.86-.5.88-.47s0,0,0,.05a5.18,5.18,0,0,1-.56.44l-.18.13a13.43,13.43,0,0,0,1.24-.91,6.74,6.74,0,0,1,.56-.42s0,0,.06,0,0,.11-.1.23a.79.79,0,0,0-.08.14s.07,0,.25-.19a1.17,1.17,0,0,0,.24-.25,1.12,1.12,0,0,1,.21-.23,2.9,2.9,0,0,0,.43-.46,4.09,4.09,0,0,1,.46-.51l.3-.28c.36-.34.74-.69,1.1-1.08a17,17,0,0,0,1.34-1.41s0,0,0,0l-.07,0s-.08,0-.09,0h0a28.65,28.65,0,0,0,3.65-4.65,26.11,26.11,0,0,0,2.2-4.43h0l.41,0h0c-.1.26-.19.49-.29.71l-.1.24a7.39,7.39,0,0,1-.45.94s0,0,0,0,0,0,.16-.45a8.79,8.79,0,0,0,.32-.83v0c-.06.1-.23.48-.4.84s-.36.79-.49,1.05c-.28.59-.45,1-.59,1.35s-.21.52-.35.81a16.32,16.32,0,0,1-1.6,2.67l-.26.33-.22.28a28.34,28.34,0,0,1-2.53,2.9c-.18.18-.35.34-.57.52s-.54.45-.8.65l-.2.15c-1,.71-1.79,1.22-3,2l-.46.28-1,.58-.06,0,0-.05s0,0,0-.05a.28.28,0,0,0-.17.08.38.38,0,0,0-.12.15h0c-.43.24-.81.44-1.19.62a1.44,1.44,0,0,1-.39.13l-.13,0Zm1.63-.92h0s0,0,0,0c-.2.12-.22.16-.24.2s0,.08-.27.21a2.39,2.39,0,0,1-.46.2,2.36,2.36,0,0,0-.44.2h0a1.42,1.42,0,0,0,.38-.13c.38-.17.76-.37,1.18-.61a.42.42,0,0,1,.13-.16c.08-.07.18-.11.21-.08a0,0,0,0,1,0,0l.91-.55.47-.28c1.22-.75,2-1.25,3-2l.2-.15c.27-.2.52-.39.8-.65s.39-.35.56-.52a28.22,28.22,0,0,0,2.53-2.9l.22-.28.26-.33a16.29,16.29,0,0,0,1.59-2.66c.14-.29.24-.54.35-.81s.31-.77.6-1.35c.13-.26.32-.68.49-1.05.37-.82.41-.89.44-.88s0,0,0,.08a8.77,8.77,0,0,1-.33.83l-.15.37a8.41,8.41,0,0,0,.43-.92l.1-.24c.09-.22.19-.44.28-.69l-.39,0a26.12,26.12,0,0,1-2.2,4.43,28.68,28.68,0,0,1-3.63,4.63l0,0c.05,0,.08,0,.1,0s0,0,0,.07a16.44,16.44,0,0,1-1.34,1.42c-.36.39-.73.74-1.1,1.08l-.3.28a4.07,4.07,0,0,0-.45.5,2.91,2.91,0,0,1-.43.46,1.1,1.1,0,0,0-.21.22,1.2,1.2,0,0,1-.24.26c-.23.2-.27.21-.28.2s0-.06.07-.17.12-.19.1-.21h0a6.9,6.9,0,0,0-.56.42,12.37,12.37,0,0,1-1.28.93c-.06,0-.07,0-.07,0s0,0,.27-.22a5.26,5.26,0,0,0,.56-.44l0,0a7.65,7.65,0,0,0-.85.47l-.52.3.08,0c.45-.23.47-.23.48-.22s0,0,0,0c-.24.19-.91.56-1.39.84l-.17.1.27-.14.25-.11Zm5.84-4.37h0s0,0,.08-.11l.67-.68c.69-.72.78-.79.8-.77s0,0-.05.1a10.44,10.44,0,0,1-1.49,1.48Zm1.5-1.54c-.1.08-.44.44-.75.75l-.67.68-.06.07A11.88,11.88,0,0,0,109.73,57h0l0,0Zm.62-.9h0s0,0,.07-.17a.33.33,0,0,0,.06-.11.45.45,0,0,1,.11-.18c.24-.3.51-.58.57-.54s.05,0-.21.41h0c-.2.27-.5.58-.58.58Zm.78-1s-.22.15-.53.54a.44.44,0,0,0-.11.17.35.35,0,0,1-.06.12c-.07.1-.07.13-.07.14a2.35,2.35,0,0,0,.56-.57c.25-.33.22-.38.22-.38Zm.95-1.07h0s0,0,0-.11h0s.34-.68.65-1.16c.12-.19.13-.19.14-.18s0,0-.24.52c-.17.32-.36.64-.5.86h0c0,.06-.06.08-.07.08Zm0-.12v0l0,.07,0-.06a13,13,0,0,0,.73-1.32l-.1.15c-.29.47-.62,1.12-.64,1.15Z"/><path class="cls-4" d="M113.12,18.95c.14.34.2.35.32.67a10.19,10.19,0,0,1,.8,2.78c-.07-.14-.52-1.46-.53-1.36s-.07-.1,0,0c.11.4.31,1.22.55,2l.34,0c-.28-1-.61-2.05-.59-2.06a14,14,0,0,1,.67,2l.25,0c-.07-.26-.14-.51-.2-.69-.13-.43-.27-1-.09-.56s.3.82.42,1.24a7.53,7.53,0,0,1,.87,0C115,20.58,114,18.18,114,17.85s-.29-.14-.12.11-.3-.08-.36,0,.19.47.15.5-.26-.36-.19-.13,1.09,2.59.9,2.33-.3-.62-.5-1.05-.44-1-.53-1.17-.12-.13-.09.07,0,.36-.13.1-.12-.13-.07.05A1.42,1.42,0,0,0,113.12,18.95Zm1.15,1.11c-.35-.94-.11-.64.11-.33.06.08-.27-.7-.19-.55a9.34,9.34,0,0,1,.86,2.48,7.52,7.52,0,0,1-.52-1.07c-.11-.24-.17-.29-.26-.53Zm-.15.93c.22.47.55,1.62.41,1.36s-.62-1.83-.41-1.36Z"/><path class="cls-4" d="M114.21,23.09h0c-.18-.62-.34-1.24-.46-1.69l-.09-.36s0,0,0-.05,0,0,0,0h0s.08.13.37.91l.17.46,0,0a17,17,0,0,0-.84-2.8,2.25,2.25,0,0,0-.16-.33,2.63,2.63,0,0,1-.16-.34h0l0-.08a1.16,1.16,0,0,1-.07-.23l0-.08c0-.1,0-.13,0-.14s0,0,.13.15.11.14.11.13,0-.12,0-.2v0c0-.15,0-.19,0-.19s0,0,.1.11.22.47.37.8l.16.37L114,20a5.92,5.92,0,0,0,.33.67h0c0-.15-.38-1-.61-1.57-.16-.38-.28-.68-.3-.75s0-.08,0-.08.05,0,.14.13l.06.07a1.39,1.39,0,0,0-.08-.23c-.07-.17-.1-.24-.07-.26s.1,0,.21.06.16.08.18.06,0,0,0-.07a.35.35,0,0,1,0-.34.05.05,0,0,1,.05,0s.1.09.13.24.23.63.49,1.31c.4,1,.94,2.41,1.44,3.83v0h0a7.55,7.55,0,0,0-.86,0h0c-.1-.33-.24-.81-.42-1.24l-.07-.15a5.65,5.65,0,0,0,.18.71c.06.19.13.46.2.69h0l-.25,0h0a15.5,15.5,0,0,0-.65-2c0,.11.14.51.28,1l.31,1.06h0l-.34,0ZM113.67,21h0l.09.36c.12.45.27,1.06.46,1.68l.32,0-.3-1a8,8,0,0,1-.28-1h0s.08,0,.69,2l.23,0c-.07-.23-.14-.49-.2-.68s-.1-.34-.13-.49,0-.26,0-.27,0,0,.1.18c.17.43.33.91.42,1.24a7.56,7.56,0,0,1,.84,0c-.5-1.42-1-2.8-1.44-3.82-.27-.68-.46-1.18-.49-1.31s-.09-.22-.12-.23l0,0a.33.33,0,0,0,0,.31c0,.05,0,.08,0,.1s-.09,0-.2-.05-.17-.08-.19-.06a1,1,0,0,0,.08.24c.07.17.1.24.07.26h0s0,0-.08-.08l-.11-.12a.21.21,0,0,0,0,.05c0,.07.15.39.3.75a8.31,8.31,0,0,1,.61,1.61s0,0,0,0A5.77,5.77,0,0,1,114,20l-.17-.38-.16-.37c-.15-.33-.3-.68-.37-.8s-.07-.1-.07-.1h0s0,0,0,.17v0c0,.14,0,.21,0,.22s-.06,0-.14-.14l-.1-.14a.65.65,0,0,0,0,.11l0,.08a1.15,1.15,0,0,0,.07.23l0,.08a2.61,2.61,0,0,0,.16.33,2.27,2.27,0,0,1,.16.33c.2.54.43,1.22.61,1.83a2.86,2.86,0,0,1,.22,1s0,0-.05,0-.09-.24-.17-.46-.29-.8-.34-.89h0s0,0,0,0Zm.88,1.37s0,0,0,0a10.24,10.24,0,0,1-.46-1.46h0s0,0,.06.09a5.88,5.88,0,0,1,.44,1.41Zm-.47-1.46a12.35,12.35,0,0,0,.46,1.4v0A7.86,7.86,0,0,0,114.1,21h0l0-.05Zm1,.73h0a7.52,7.52,0,0,1-.52-1.07l-.12-.23a1.74,1.74,0,0,1-.14-.3c-.2-.54-.19-.63-.16-.65s.09,0,.26.26l-.1-.25c-.11-.27-.11-.27-.09-.28s0,0,0,0a10,10,0,0,1,.87,2.5h0Zm-.95-2.24h0s0,.07.17.62h0a1.72,1.72,0,0,0,.14.29l.12.23a7.25,7.25,0,0,0,.52,1.06h0a11.84,11.84,0,0,0-.84-2.39l.06.16c.12.32.12.32.11.33s0,0,0,0C114.19,19.48,114.13,19.43,114.11,19.43Z"/><path class="cls-4" d="M115.05,18.05c-.39-.81,0,.54.21.89S115.44,18.87,115.05,18.05Z"/><path class="cls-4" d="M115.36,19.08s-.05,0-.11-.13a4.43,4.43,0,0,1-.37-1.15h0s0,0,.16.26h0c.27.56.38,1,.31,1Zm-.46-1.27a5.09,5.09,0,0,0,.37,1.12c.06.11.09.12.09.12h0a2.18,2.18,0,0,0-.32-1h0a1,1,0,0,0-.14-.24Z"/><path class="cls-4" d="M116.09,21.5c.12.43.31,1,.43,1.43l0,.12h0l0-.13c0-.16,0-.07.07.13l.15,0a6.33,6.33,0,0,1-.31-.74c-.17-.57-.53-1.58-.42-1.12C116.11,21.42,116,21.23,116.09,21.5Z"/><path class="cls-4" d="M116.8,23.07h0l-.15,0h0l-.05-.16v0l0,.13v0h-.07l0-.12c-.07-.26-.16-.55-.24-.83s-.13-.41-.18-.6,0-.16,0-.18,0,0,0-.12,0-.13,0-.13,0,0,.19.45c.09.27.19.57.26.8a2.75,2.75,0,0,0,.21.5,2.06,2.06,0,0,1,.11.24Zm-.16,0h.13a2.09,2.09,0,0,0-.1-.22,2.78,2.78,0,0,1-.21-.51c-.13-.42-.34-1-.41-1.19a.32.32,0,0,0,0,.06c0,.1,0,.12,0,.14s0,0,0,.16h0c.05.19.12.39.18.6s.18.57.24.83l0,.11h0l0-.11c0-.09,0-.09,0-.1S116.57,22.82,116.64,23Z"/><path class="cls-4" d="M116.38,23h.14a8.33,8.33,0,0,0-.49-1.21C116,22,116.25,22.57,116.38,23Z"/><path class="cls-4" d="M116.54,23h-.17l-.16-.53a5.4,5.4,0,0,1-.19-.67s0,0,0,0h0s.08.11.31.75c.08.2.15.4.19.49Zm-.15,0h.11l-.18-.48c-.1-.28-.24-.64-.29-.72h0a5.55,5.55,0,0,0,.19.66l.16.53Z"/><path class="cls-4" d="M110.7,15.34c.06.16.55.87.77,1.27.54,1.07,1.14,2.2,1.65,3.47.27.64.41,1.22.59,1.67.12.28.08,0,0-.31a37.41,37.41,0,0,0-1.51-3.54c-.1-.24.39.7.32.5-.14-.42-.2-.62-.28-.86s-.55-1-.72-1.31.48.72.65,1,.05-.09-.2-.58-.37-.45-.7-1-.92-1.39-.69-1c.12.2,0,0,.12.28s.55.86.78,1.27C111.86,17,110.6,15.06,110.7,15.34Z"/><path class="cls-4" d="M113.78,21.89s0,0-.08-.13-.16-.43-.24-.68-.21-.64-.36-1c-.44-1.07-.92-2-1.39-3l-.26-.51c-.1-.18-.27-.44-.41-.67a5.39,5.39,0,0,1-.36-.6s0,0,0,0,.09.07.5.64l.32.44-.06-.11c-.13-.23-.29-.49-.45-.73l-.33-.53c-.08-.13-.08-.15-.07-.16s0,0,0-.11-.06-.12,0-.12,0,0,.3.38c.16.23.34.5.46.7a2.74,2.74,0,0,0,.33.43,2.11,2.11,0,0,1,.37.55s.33.64.27.68,0,0-.1-.09l-.13-.21c-.15-.25-.41-.68-.51-.82v0l.23.4c.21.37.46.79.5.9l0,.14c.06.19.12.38.23.72,0,0,0,0,0,0s0,0-.18-.28l-.12-.2c.11.25.25.55.4.87a22.11,22.11,0,0,1,1.09,2.61c0,.16.13.43.09.44Zm-1-2.73q.2.45.4.92c.15.35.26.7.36,1s.15.47.24.68l.05.11a2.16,2.16,0,0,0-.1-.4,19.93,19.93,0,0,0-.95-2.29Zm-2-3.82h0a5.55,5.55,0,0,0,.36.59c.15.23.31.49.41.67l.26.51c.24.48.49,1,.73,1.48l-.31-.68s0-.05,0-.06,0,0,.19.3l.12.21c-.1-.3-.16-.49-.21-.67l0-.14c0-.11-.29-.55-.49-.9l-.23-.4c0-.08,0-.09,0-.09s0,0,.57.88l.13.21.06.08a3,3,0,0,0-.28-.64,2.09,2.09,0,0,0-.37-.54,2.75,2.75,0,0,1-.33-.44c-.23-.37-.59-.9-.7-1l0,.06c.05.09.05.11,0,.13s0,0,.07.15l.33.53c.16.24.32.5.45.73s.09.17.08.18,0,0-.37-.48c-.17-.24-.4-.56-.47-.63Z"/><path class="cls-4" d="M114.84,18.48c-.27-.57-.55-.64-.44-.46S115.11,19.08,114.84,18.48Z"/><path class="cls-4" d="M114.9,18.69c-.08,0-.51-.66-.51-.67s0-.07,0-.09l0,0c.08,0,.27.18.45.55h0c.08.19.08.21.06.22Zm-.51-.75h0s0,0,0,.06a4.31,4.31,0,0,0,.49.66.62.62,0,0,0-.07-.19c-.19-.4-.37-.54-.43-.54Z"/><path class="cls-4" d="M113.44,47.43c-.16.45-.34.89-.57,1.38a36.71,36.71,0,0,1-3,5.32,26,26,0,0,1-2.07,2.71,43.51,43.51,0,0,1-3.26,3.37,25.59,25.59,0,0,1-5.73,3.84c-.51.27-1,.44-1.37.66s1.52-.61.76-.17c-.57.33-.78.3-1.4.61-.24.12.21-.18,0-.06-.62.3-.63.49-1.1.65s.11-.16-.28,0c-1,.37-2.46,1-3.79,1.37-.52.14-1,.24-1.47.34-.23,0-.27,0-.5.07a39.9,39.9,0,0,1-7.22.71,24.87,24.87,0,0,1-2.76-.2c-.63-.08-1.13-.27-1.49-.29s1,.22.73.22-.53,0-1,0a23,23,0,0,1-5.18-1.25,16.93,16.93,0,0,1-2.83-1.2c-.13-.09,0-.06-.2-.19s.56.23.48.17-.38-.21-.68-.36a3.12,3.12,0,0,1-.51-.16c-.56-.22-.61-.37-.26-.26l-.12-.08c-.09-.1.37.08.29,0l-.14-.12a5.33,5.33,0,0,1-1.09-.53s.42.17.89.38l-.12-.08c-.27-.12-.54-.24-.75-.35-.9-.46-1.64-.9-2.51-1.43l-.33-.2.7.5.27.19c.51.3.35.3,0,.17.35.24.6.41.48.37a6.33,6.33,0,0,1-1.17-.69l-.27-.15s-.43-.24-.42-.21a6.82,6.82,0,0,0,.54.43s.1.08,0,.07a5.22,5.22,0,0,1-.45-.28c.24.2.55.48.57.51s-.66-.47-.64-.43.73.65.88.82,0,.16.06.22.2.12.23.15,0,.12.05.07,0,0,0,.06l.41.33.15.12.09.08,0,0,.26.21L67,65l.08.07.07.07.08.07.09.07a1,1,0,0,0,.24.18l.08,0,.1.06.16.1.16.09.05,0,.07.07h0l.11,0a.14.14,0,0,1,.08,0l.48.19c1,.46,2.53,1,3.42,1.29.05,0,.59.16.65.16s-.87-.3-.62-.24l1.28.33c.76.21.6.26,1.25.45a25.51,25.51,0,0,0,2.59.47c1.38.24,3.41.28,3.93.38.21,0-1.1,0-1.64-.08-.33,0-.29,0,0,.07a19.5,19.5,0,0,0,4,.05c.47,0-1.27,0-1.65,0a15.15,15.15,0,0,1,1.64-.1c.58-.06.65-.13,1.3-.17s1.54-.11,1.31,0-2,.18-2,.21,1.69-.14,2-.14.09.07.34.07.43,0,.66,0-.84.16-.65.15.62-.08,1-.14.65-.07,1-.15a10.58,10.58,0,0,0,1.57-.56c.43-.16,1.31-.41,1.89-.58.29-.08,0,0,.33,0a2.1,2.1,0,0,1,.65-.12c.07,0,.74-.26.94-.32s-1.13.47-.91.41,1.48-.56,1.88-.66c.18,0-.9.39-.61.28a9,9,0,0,0,1-.29c.44-.2-.09,0,.27-.22.71-.34,1.31-.49,2.15-.93.53-.26.64-.43,1.14-.7,1-.54.83-.33,1-.33s-.67.45-.54.42a2.21,2.21,0,0,0,.62-.26,13.36,13.36,0,0,0,1.14-.73c.12-.1-.82.49-.59.33.47-.33.22-.27.8-.65a8.08,8.08,0,0,1,1.17-.68c.62-.38,1.2-.79,2-1.36a19.68,19.68,0,0,0,2.36-2c.47-.47-.75.67-1,.9-.1.08,0,0,0,0s.07-.18.44-.55,1-.93,1.46-1.47c.78-.82,1.18-1.24,1.88-2l.19-.24c.07-.16.14-.31.22-.46-.17.25-.35.48-.48.64-.27.32,0-.09.14-.33.5-.79,1.17-1.84,2-3.25.19-.31-.14.35.05,0a48.43,48.43,0,0,0,2.73-5.22A9.74,9.74,0,0,1,113.44,47.43ZM73.32,67.53c-.54-.14-1-.4-.61-.3S73.86,67.65,73.32,67.53Zm14.38.39s.62,0,.26,0S87.7,67.93,87.7,67.93Zm.51.2c-.22.07-1,.1-.65,0s.87-.09.65,0Zm3.25-.46c-.38.13-.76.15-1.28.28-.3.07-.4.15-.63.19-.43.06-1.2.17-.66,0,1-.21,3.34-.78,2.58-.5ZM94,66.9c-.35.18-.51,0,0-.13s.39,0,0,.12Zm2.85-1.73a1.24,1.24,0,0,1,.63-.2c.16,0,.94-.46.9-.41a3.43,3.43,0,0,1-.84.53c-1.13.55-1.81.61-.69.08Zm2.88-.88a14.53,14.53,0,0,1-2.63,1.45c.15-.1.59-.29.89-.45s.41-.31.84-.55a4.69,4.69,0,0,1,.9-.45Zm6.39-4.41a19.32,19.32,0,0,1-1.51,1.39c-.24.2-.31.19,0-.05l.26-.23c.78-.69,1.67-1.58,2.25-2.11a8.05,8.05,0,0,1-1,1Zm1.92-2c.47-.56,1.31-1.62,1.33-1.6s-1.8,2.15-1.33,1.6Zm2.77-4c-.34.53-.62.79-.47.51,0-.05.16-.22.19-.29a8.26,8.26,0,0,1,.53-.9c.53-.83.28-.12-.25.68Zm1.82-3s0-.15.24-.67c.35-.71.12,0-.2.69-.09.18,0,0,0,0Z"/><path class="cls-4" d="M82.16,69.11A21.34,21.34,0,0,1,79.76,69c-.24,0-.24-.06-.24-.07s0,0,.24,0l.51,0,1,.06c-.22,0-.61-.06-1.09-.09-.85-.06-1.92-.13-2.76-.28a25.51,25.51,0,0,1-2.6-.47,3.57,3.57,0,0,1-.56-.21,3.77,3.77,0,0,0-.69-.24l-.44-.11-.71-.18.11,0c.4.14.4.14.4.16h0l-.36-.09-.29-.07h0l-.74-.27c-.84-.3-1.9-.67-2.67-1L68.58,66,68.42,66l-.07,0h0l-.11,0h0s-.07-.06-.07-.07l0,0-.16-.09-.16-.1-.1-.06-.08,0a1,1,0,0,1-.25-.19l-.09-.07-.08-.08-.06-.07L67,65l-.29-.22a2.39,2.39,0,0,1-.27-.21l0,0-.09-.08-.15-.12L65.8,64l0,0v0h-.06s0,0,0,0,0,0,0,0l-.05,0a.51.51,0,0,1-.18-.12.26.26,0,0,1,0-.12.18.18,0,0,0,0-.1c-.08-.09-.32-.3-.53-.49a4.62,4.62,0,0,1-.35-.33h0s0,0,.32.21l.27.19-.52-.45v0l.44.28h0l0,0,0,0-.12-.09a3.11,3.11,0,0,1-.41-.34h0s0,0,.23.11l.17.09h0l0,0,.27.15a6.14,6.14,0,0,0,1.17.69h0c-.06-.06-.33-.24-.49-.35L65.76,63l.09,0c.22.08.29.08.29.08s0,0-.32-.23l-.15-.1-.13-.09-.7-.5v0l.33.2c.73.45,1.53.93,2.51,1.43.19.1.43.22.75.35l.12.08.09.07-.21-.09-.75-.33a8.36,8.36,0,0,0,1.07.5h0l.14.13s0,0,0,0-.06,0-.16,0l-.14,0h0l.11.08.08.05-.09,0c-.16-.05-.2,0-.2,0s.09.12.47.26a3.15,3.15,0,0,0,.51.16h0l0,0c.28.14.55.28.65.35a0,0,0,0,1,0,0s0,0-.31-.11l-.11,0c.06,0,.07.06.07.08s0,0,.06.07a17,17,0,0,0,2.83,1.2,23.15,23.15,0,0,0,5.17,1.25,6.52,6.52,0,0,0,.72,0h.28l-.35-.08c-.41-.09-.43-.1-.43-.12s0,0,.05,0a3.5,3.5,0,0,1,.65.12,7.41,7.41,0,0,0,.84.17,24.64,24.64,0,0,0,2.75.2h.11a39.76,39.76,0,0,0,7.1-.71l.24,0,.26,0c.49-.09.93-.2,1.47-.34a23.27,23.27,0,0,0,2.71-1l1.08-.42c.14-.05.16,0,.18,0s0,0,0,.05v0a.36.36,0,0,0,.13,0,1.53,1.53,0,0,0,.5-.28,3,3,0,0,1,.6-.37c.07,0,.08,0,.08,0s0,0-.06.07l0,0h0a5.38,5.38,0,0,1,.66-.28,3.92,3.92,0,0,0,.73-.33l.15-.1-.42.16c-.46.18-.56.22-.58.19s0,0,.07-.08a4.54,4.54,0,0,1,.71-.35c.22-.09.44-.19.66-.31a25.62,25.62,0,0,0,5.73-3.84,43.53,43.53,0,0,0,3.26-3.37,26.05,26.05,0,0,0,2.07-2.71,36.49,36.49,0,0,0,3-5.32c.2-.44.37-.87.56-1.38h0a9.79,9.79,0,0,0,1,.2h0a48.74,48.74,0,0,1-2.73,5.22c-.06.09-.06.1-.08.09s0,0,0-.12l0,0,0,0c-.7,1.13-1.27,2-1.73,2.76l-.31.49-.06.09c-.07.11-.16.26-.19.33l.08-.1c.12-.14.28-.35.48-.64h0c-.08.15-.16.3-.22.46l-.2.24c-.69.78-1.07,1.2-1.88,2-.41.45-.8.83-1.2,1.22l-.25.24c-.46.47-.44.53-.44.53a.12.12,0,0,1,0,0h0l0,0,.69-.61c.47-.42.47-.42.48-.41s0,0-.11.13a15.28,15.28,0,0,1-1.89,1.65l-.47.37c-.7.53-1.31,1-2,1.37l-.38.2a4.21,4.21,0,0,0-.79.48,2.05,2.05,0,0,0-.45.36,1.54,1.54,0,0,1-.23.21l.11-.07c.37-.22.37-.22.38-.2s0,0,0,0a13.18,13.18,0,0,1-1.14.73,2.24,2.24,0,0,1-.58.25h0s0,0,0,0,0,0,.26-.2l.3-.21-.06,0c-.06,0-.14-.07-.89.35a5.39,5.39,0,0,0-.52.33,4.37,4.37,0,0,1-.63.38,11.89,11.89,0,0,1-1.26.56c-.3.12-.58.23-.88.37l-.13.08h0s0,0,0,0,0,0-.19.12a1.77,1.77,0,0,1-.51.16,2.07,2.07,0,0,0-.45.12c-.06,0-.06,0-.07,0s0,0,.25-.12l.33-.14c-.18.06-.46.16-.75.28a7.69,7.69,0,0,1-1,.36h0s0,0,.42-.19l.47-.19-.31.11a2.86,2.86,0,0,1-.57.19,2.15,2.15,0,0,0-.65.12c-.15,0-.16,0-.18,0s0,0-.16,0l-.44.13c-.53.15-1.12.33-1.45.45a4.12,4.12,0,0,0-.54.22,4.66,4.66,0,0,1-1,.34,4.3,4.3,0,0,1-.57.09l-.41.06-.18,0a7.73,7.73,0,0,1-.81.11h0s0,0,.3-.07l.31-.06h-.59c-.15,0-.16,0-.19,0a.27.27,0,0,0-.15,0h0l-.77.07a6.4,6.4,0,0,1-1.19.08h0s0,0,.59-.07a11.92,11.92,0,0,0,1.38-.15h0a8.23,8.23,0,0,0-1.33.07,5.57,5.57,0,0,0-.73.09c-.15,0-.31.06-.57.08s-.75,0-1.12.06l-.52,0h0c.2,0,.81,0,1.25,0s.49,0,.49,0,0,0-.09,0A12.67,12.67,0,0,1,82.16,69.11Zm-2.61-.2.21,0a19.69,19.69,0,0,0,3.89.06h-.34c-.44,0-1,0-1.25,0S82,69,82,69s0,0,.59,0c.37,0,.84,0,1.12-.06a5.45,5.45,0,0,0,.57-.08A5.59,5.59,0,0,1,85,68.7a5.78,5.78,0,0,1,1.36,0s0,0,0,0a12,12,0,0,1-1.39.15l-.53,0c.15,0,.72,0,1.14-.09l.78-.07h0a.29.29,0,0,1,.16,0s.05,0,.18,0h.66s0,0,0,0,0,0-.4.1l-.16,0,.69-.1.18,0,.41-.06a4.28,4.28,0,0,0,.57-.09,4.48,4.48,0,0,0,1-.34,4.14,4.14,0,0,1,.54-.22c.33-.13.93-.3,1.45-.45l.44-.13c.15,0,.16,0,.18,0s0,0,.15,0a2.1,2.1,0,0,1,.66-.12,3.58,3.58,0,0,0,.56-.18L94,67h0s0,0-.57.26l-.33.14a9.92,9.92,0,0,0,1-.35c.34-.13.66-.26.84-.3,0,0,0,0,0,0s0,0-.44.21h0l.24-.06a1.75,1.75,0,0,0,.51-.16l.18-.09h0s0,0,0,0,0,0,.14-.1c.31-.15.59-.26.89-.37a11.84,11.84,0,0,0,1.26-.56,4.35,4.35,0,0,0,.62-.38,5.41,5.41,0,0,1,.52-.33c.76-.43.84-.39.91-.35l.06,0h0s0,.06-.31.24l-.23.16h0a2.22,2.22,0,0,0,.57-.25c.3-.18.82-.5,1.06-.67l-.25.15c-.28.17-.28.17-.29.16s0,0,0,0a1.83,1.83,0,0,0,.34-.29,2,2,0,0,1,.46-.36,4.22,4.22,0,0,1,.79-.48l.38-.2c.66-.4,1.26-.84,2-1.36l.47-.37a15.46,15.46,0,0,0,1.86-1.62l-.31.28-.69.61s-.06,0-.07,0,0,0,0,0v0c0-.06.26-.38.44-.56l.25-.24c.41-.4.79-.78,1.2-1.22.81-.84,1.19-1.26,1.88-2l.19-.24.14-.3c-.15.22-.28.38-.38.5s-.12.13-.13.12,0,0,.2-.37l.06-.09.31-.49c.46-.72,1-1.63,1.73-2.76.06-.09.06-.1.08-.09s0,0,0,.12l0,0,0,0a48.41,48.41,0,0,0,2.72-5.2,9.41,9.41,0,0,1-1-.2c-.19.51-.36.93-.56,1.37a36.51,36.51,0,0,1-3,5.33,26.09,26.09,0,0,1-2.08,2.71,43.57,43.57,0,0,1-3.25,3.35,25.64,25.64,0,0,1-5.74,3.85c-.22.12-.45.21-.66.31a4.54,4.54,0,0,0-.7.35l-.06,0a4.5,4.5,0,0,0,.54-.2c.41-.16.45-.18.46-.15s0,0-.18.13a3.94,3.94,0,0,1-.73.33l-.37.14a.49.49,0,0,1,.22,0l.12,0a4.5,4.5,0,0,0,.58-.27c.31-.16.32-.16.33-.14a0,0,0,0,1,0,0,3.31,3.31,0,0,1-.84.53,3.24,3.24,0,0,1-1.27.44,0,0,0,0,1,0,0c0-.06.27-.21.51-.33h0s0,0,.06-.07l0,0h0a3,3,0,0,0-.6.37,1.57,1.57,0,0,1-.5.28c-.11,0-.14,0-.16,0s0,0,0-.05v0a.41.41,0,0,0-.15,0l-1.08.42a23.15,23.15,0,0,1-2.71,1c-.54.14-1,.24-1.47.34l-.26,0-.24,0a39.81,39.81,0,0,1-7.11.71h-.11a24.66,24.66,0,0,1-2.76-.2,7.43,7.43,0,0,1-.85-.17,3.51,3.51,0,0,0-.64-.12l.38.09c.4.09.41.09.41.11s0,0-.05,0h-.29a6.58,6.58,0,0,1-.73,0,23.28,23.28,0,0,1-5.18-1.26,17.1,17.1,0,0,1-2.83-1.2c-.05,0-.06-.06-.07-.08s0,0-.13-.11,0,0,0,0,0,0,.23.08l.22.09-.59-.31h0a3.18,3.18,0,0,1-.51-.16c-.32-.12-.51-.24-.49-.29s.08,0,.16,0l-.05,0s0,0,0,0,.06,0,.16,0l.14,0h0l-.13-.12c-1-.44-1.11-.51-1.1-.54s0,0,.79.32h0l0,0c-.31-.13-.56-.25-.75-.35-1-.5-1.79-1-2.51-1.43l-.12-.08.5.35.13.09.14.1c.36.21.34.24.33.26s-.09,0-.24,0c.41.28.45.31.44.34s0,0,0,0a6.18,6.18,0,0,1-1.17-.7l-.26-.15-.21-.11-.17-.09c.07.07.26.21.38.3l.14.11,0,0s0,0,0,.06,0,0,0,0l-.28-.17c.2.17.4.35.42.38s0,0,0,0,0,0-.35-.23l-.23-.16.29.27c.21.19.45.41.53.49a.2.2,0,0,1,0,.11.24.24,0,0,0,0,.11.51.51,0,0,0,.17.11l.06,0s0,0,0,.05a.07.07,0,0,0,0,0h0s0,0,0,0l0,0,.41.32.15.12.09.08,0,0,.26.2.29.22.08.07.07.07.08.07.1.08a1,1,0,0,0,.24.18l.09,0,.1.06.16.1.16.09s.06,0,.06,0l.06.06h0l.1,0h0l.08,0,.15.06.33.12c.78.35,1.83.72,2.67,1l.74.27.29.07.26.07-.3-.11c-.29-.1-.29-.1-.28-.12s0,0,.05,0l.84.21.44.11a3.84,3.84,0,0,1,.69.24,3.56,3.56,0,0,0,.56.21,25.5,25.5,0,0,0,2.59.47c.84.15,1.9.22,2.75.28.54,0,1,.06,1.18.1,0,0,0,0,0,0a5.07,5.07,0,0,1-1.16,0l-.51,0h-.21ZM97.34,65c-.07,0-.14,0-.5.18h0c-.53.26-.57.33-.57.34h0a3.54,3.54,0,0,0,1.24-.44,3.83,3.83,0,0,0,.82-.5l-.28.14a4.47,4.47,0,0,1-.58.27l-.12,0Zm-8.59,3.24c-.05,0-.05,0-.05,0s0,0,.19-.07l1.05-.23a7.61,7.61,0,0,1,1.69-.33s0,0-.16.08h0a4.27,4.27,0,0,1-.67.16c-.18,0-.38.07-.61.13l-.33.1a1.46,1.46,0,0,1-.3.09,7.38,7.38,0,0,1-.81.1Zm0,0h0c.09,0,.41,0,.82-.1a1.44,1.44,0,0,0,.3-.08l.33-.1c.23-.06.43-.09.61-.13a4.26,4.26,0,0,0,.67-.16h0l.13-.05c-.14,0-1,.19-1.65.34l-1.05.23-.16,0Zm-1.14,0h-.13a0,0,0,0,1,0,0s0,0,.1,0a1.58,1.58,0,0,1,.72,0s0,0-.06,0h0A3,3,0,0,1,87.59,68.2Zm-.11,0a2.81,2.81,0,0,0,.72-.06h0l0,0a2.23,2.23,0,0,0-.69.06ZM87.8,68c-.06,0-.1,0-.11,0a0,0,0,0,1,0,0h0c.35,0,.35,0,.35,0s0,0-.12,0Zm-.09-.06s0,0,0,0,0,0,.26,0h-.26Zm-14.22-.37-.17,0h0c-.37-.09-.79-.27-.78-.33s0,0,.18,0a2.77,2.77,0,0,1,.81.33S73.52,67.57,73.49,67.57Zm-.16,0,.17,0a3.76,3.76,0,0,0-.78-.3l-.15,0a2.31,2.31,0,0,0,.76.3ZM93.73,67l-.07,0a0,0,0,0,1,0,0c0-.05.12-.12.3-.17s.33-.07.34-.05,0,0-.29.2h0a.64.64,0,0,1-.27.08Zm.52-.28a1.26,1.26,0,0,0-.3.07c-.21.07-.28.13-.28.15v0s.15,0,.31-.07h0c.27-.14.28-.17.28-.17h0Zm2.8-.92h0s0,0,.05-.06a5.61,5.61,0,0,1,.5-.26l.39-.19A2.9,2.9,0,0,0,98.4,65a3,3,0,0,1,.42-.27l.59-.32c.31-.16.32-.15.33-.14s0,0,0,0a10.33,10.33,0,0,1-1.36.84A12.17,12.17,0,0,1,97,65.8Zm2.66-1.51c-.1,0-.46.23-.87.45a3,3,0,0,0-.42.27,2.93,2.93,0,0,1-.43.28l-.39.19a5.39,5.39,0,0,0-.5.26l0,0a18.85,18.85,0,0,0,2.63-1.47Zm4.68-2.87h0s0,0,.17-.2l.09-.08.16-.15c.47-.42,1-.91,1.45-1.35l.8-.76s.06,0,.06,0,0,0-.38.43c-.19.2-.46.46-.63.62a19.32,19.32,0,0,1-1.51,1.4A.6.6,0,0,1,104.39,61.42ZM107,58.94l-.75.71c-.46.44-1,.93-1.45,1.35l-.16.15-.09.08a1,1,0,0,0-.16.17,1,1,0,0,0,.19-.13,19.31,19.31,0,0,0,1.51-1.39h0c.26-.24.73-.73.92-.94ZM108,58h0s0,0,.07-.11h0l.68-.83a6.07,6.07,0,0,1,.65-.77h0s0,0-.58.76L108,58Zm1.37-1.66c-.1.11-.35.42-.6.72l-.3.37c.35-.41.78-.93.89-1.09Zm1-1.81h0s0,0,0-.13l.1-.14.1-.14.1-.19a6.4,6.4,0,0,1,.43-.71c.23-.36.28-.38.29-.38h0a3.39,3.39,0,0,1-.54,1.05h0a2.16,2.16,0,0,1-.51.62Zm1-1.67s-.07,0-.27.36a6.4,6.4,0,0,0-.43.71l-.1.19-.1.15-.09.14a.29.29,0,0,0,0,.1,2.46,2.46,0,0,0,.49-.62h0A3.72,3.72,0,0,0,111.33,52.87Zm1.28-1.8h0s0,0,0-.06v0s0-.14.24-.68C113,50,113,50,113,50a3.51,3.51,0,0,1-.37,1C112.64,51.06,112.62,51.07,112.61,51.07Zm0-.12s0,0,0,.06h0l0,0a5.21,5.21,0,0,0,.38-1,1.65,1.65,0,0,0-.16.28c-.28.56-.26.64-.24.65Z"/><path class="cls-1" d="M56.81,53.56a1.48,1.48,0,0,0,.17.33A1.76,1.76,0,0,0,56.81,53.56Z"/><path class="cls-1" d="M57,53.9c-.18-.31-.17-.33-.17-.34h0s0,0,.18.34Z"/><path class="cls-1" d="M51,24.88a9,9,0,0,1,1.71-.17,9.78,9.78,0,0,1,1.8.17l8.08,13.31V24.88a12.23,12.23,0,0,1,2-.17,8.6,8.6,0,0,1,1.74.17V45.77a9.24,9.24,0,0,1-1.68.17,10,10,0,0,1-1.77-.17L54.78,32.49V45.77a10.24,10.24,0,0,1-1.89.17A9.78,9.78,0,0,1,51,45.77Z"/><path class="cls-1" d="M78.23,46.12a9.41,9.41,0,0,1-4.07-.81,7.56,7.56,0,0,1-2.82-2.25,9.66,9.66,0,0,1-1.64-3.4,16.15,16.15,0,0,1-.54-4.28,16.49,16.49,0,0,1,.54-4.32,9.84,9.84,0,0,1,1.64-3.44,7.5,7.5,0,0,1,2.82-2.27,10.53,10.53,0,0,1,8.13,0,7.5,7.5,0,0,1,2.82,2.27,9.81,9.81,0,0,1,1.64,3.44,16.44,16.44,0,0,1,.54,4.32,16.1,16.1,0,0,1-.54,4.28,9.7,9.7,0,0,1-1.64,3.4,7.57,7.57,0,0,1-2.82,2.25A9.36,9.36,0,0,1,78.23,46.12Zm0-3.54q4.5,0,4.5-7.2A10.67,10.67,0,0,0,81.64,30a3.68,3.68,0,0,0-3.39-1.8q-4.56,0-4.56,7.21T78.23,42.57Z"/><path class="cls-1" d="M87.55,24.88l1.14-.12c.43,0,.8-.06,1.13-.06a16.49,16.49,0,0,1,2.32.17L96.7,41.35l4.62-16.47q.58-.09,1.12-.12c.36,0,.72,0,1.09,0l1.06,0c.36,0,.73.06,1.12.12L99,45.77q-.61.09-1.18.13c-.38,0-.78,0-1.21,0s-.77,0-1.14,0-.77-.07-1.22-.13Z"/><path class="cls-1" d="M107.31,24.88a13.26,13.26,0,0,1,2.12-.17,13.8,13.8,0,0,1,2.15.17V45.77a13.61,13.61,0,0,1-2.12.17,13.42,13.42,0,0,1-2.15-.17Z"/><path class="cls-1" d="M122.21,34.94l3.25-10a14.19,14.19,0,0,1,2.18-.17l1.12,0c.38,0,.76.06,1.15.12l-3.69,9.94,4.53,10.92-1.18.13c-.34,0-.68,0-1,0s-.66,0-1,0-.75-.08-1.23-.16Z"/><path class="cls-1" d="M9.25,24.74l.82-.1c.35,0,.73-.09,1.15-.12l1.28-.09c.43,0,.83,0,1.18,0a12.9,12.9,0,0,1,3.11.35,6.57,6.57,0,0,1,2.4,1.1,5,5,0,0,1,1.55,2,7,7,0,0,1,.55,2.92,7.22,7.22,0,0,1-.62,3.14A5.72,5.72,0,0,1,19,36a6.93,6.93,0,0,1-2.47,1.19,11.29,11.29,0,0,1-2.95.38q-.67,0-1.16,0l-1.13-.09v8.19l-.46,0-.52,0-.57,0-.45,0Zm2,10.84.51,0,.44,0,.49,0,.71,0a12.2,12.2,0,0,0,2.06-.17,4.88,4.88,0,0,0,1.85-.71,3.93,3.93,0,0,0,1.34-1.51,5.6,5.6,0,0,0,.51-2.57,5.13,5.13,0,0,0-.39-2.13,3.44,3.44,0,0,0-1.12-1.38,4.82,4.82,0,0,0-1.77-.75,10.69,10.69,0,0,0-2.33-.23q-.75,0-1.34,0c-.39,0-.71.06-1,.1Z"/><path class="cls-1" d="M40.4,46a8.56,8.56,0,0,1-3.81-.8,7.27,7.27,0,0,1-2.69-2.24,10.12,10.12,0,0,1-1.6-3.43,17.73,17.73,0,0,1,0-8.67,10.21,10.21,0,0,1,1.6-3.41,7.28,7.28,0,0,1,2.69-2.24,9.46,9.46,0,0,1,7.61,0,7.29,7.29,0,0,1,2.69,2.24,10.14,10.14,0,0,1,1.6,3.41,17.72,17.72,0,0,1,0,8.67,10.15,10.15,0,0,1-1.6,3.43,7.28,7.28,0,0,1-2.69,2.24A8.51,8.51,0,0,1,40.4,46Zm0-1.83a6.08,6.08,0,0,0,2.91-.65,5.7,5.7,0,0,0,2-1.84,8.48,8.48,0,0,0,1.21-2.85,17,17,0,0,0,0-7.26,8.28,8.28,0,0,0-1.21-2.83,5.74,5.74,0,0,0-2-1.83,6.09,6.09,0,0,0-2.91-.65,6.17,6.17,0,0,0-2.92.65,5.56,5.56,0,0,0-2,1.83,8.45,8.45,0,0,0-1.19,2.83,17,17,0,0,0,0,7.26,8.66,8.66,0,0,0,1.19,2.85,5.52,5.52,0,0,0,2,1.84,6.16,6.16,0,0,0,2.92.65Z"/><path class="cls-1" d="M25.81,36.62l.23-.09a10.22,10.22,0,0,0,1.76-.89,6.83,6.83,0,0,0,1.51-1.28,6.31,6.31,0,0,0,1.06-1.67,5.09,5.09,0,0,0,.41-2.06,6.31,6.31,0,0,0-.65-3,5.26,5.26,0,0,0-1.73-1.92,7.07,7.07,0,0,0-2.43-1,13.15,13.15,0,0,0-2.74-.29l-1.16,0c-.33,0-.64,0-.94.06l-.93.09-.9.08a7.17,7.17,0,0,1,.65.39,5.92,5.92,0,0,1,1.18,1.22c.46-.05.86-.09,1.2-.11s.73,0,1.13,0a5.81,5.81,0,0,1,3.78,1.13,4.12,4.12,0,0,1,1.39,3.4,4,4,0,0,1-.44,1.92A4.7,4.7,0,0,1,27,34a7,7,0,0,1-1.64,1,12.26,12.26,0,0,1-1.92.68l-.64.17V36l7.32,9.67a2.94,2.94,0,0,0,.57.06h1.15a3,3,0,0,0,.58-.06Z"/><path class="cls-1" d="M118.1,34.85l-3.75-9.94c.39-.06.77-.1,1.15-.12l1.12,0a14.16,14.16,0,0,1,2.18.17l3.31,10L118,45.74c-.48.08-.9.13-1.23.16s-.67,0-1,0-.69,0-1,0l-1.18-.13Z"/></svg>